<?xml version="1.0" encoding="utf-8"?>
<!-- Generator: Adobe Illustrator 25.2.1, SVG Export Plug-In . SVG Version: 6.00 Build 0)  -->
<svg version="1.1" xmlns="http://www.w3.org/2000/svg" xmlns:xlink="http://www.w3.org/1999/xlink" x="0px" y="0px"
	 viewBox="0 0 595.28 841.89" style="enable-background:new 0 0 595.28 841.89;" xml:space="preserve">
<style type="text/css">
	.st0{fill:#FFFFFF;stroke:#000000;stroke-miterlimit:10;}
	.st1{fill:#F9A50E;}
</style>
<g id="Layer_1">
	<circle class="st0" cx="297.64" cy="323.44" r="97.5"/>
</g>
<g id="Layer_2">
	<g>
		<path class="st1" d="M407,230c-1.66,8.18-3.69,20.69-4,36c-0.63,31.07,6.47,40.23,6,60c-0.93,39.13-30.28,67.66-36,73
			c-28.41,26.53-61.59,29.8-76,31c-18.1,1.51-54.49,4.55-84-21c-26.21-22.69-31.04-54.13-32-67c-2.7-36.41,15.35-62.5,20-69
			c12.18-17.04,16.72-12.2,38-36c10.82-12.1,26.44-29.91,36-57c6.03-17.09,7.61-32.11,8-42c0,0,13,44-4,71
			c-6.82,10.83,16.59-16.19,21-22c17.06-22.5,23.02-45.23,27-61c4.26-16.89,3.16-26.94,5-27c2.97-0.1,8.36,25.45,7,52
			c-0.85,16.67-2.17,42.32-19,64c-7.85,10.11-9.66,7.23-29,26c-15.94,15.47-24.62,23.89-32,37c-6.38,11.32-19.85,35.25-11,61
			c6.69,19.47,22.51,29.4,27,32c23.38,13.53,54.13,10.33,75-6c18.19-14.23,25.78-36.02,26-53c0.17-13.08-4.15-14.05-10-44
			c-3.31-16.93-5.6-28.64-5-43c0.45-10.9,2.77-28.29,13-49c0,0-15,38,5,72l16.14,21L407,230z"/>
		<path d="M407,230c-2.73,13.6-4.06,27.48-3.93,41.35c0.06,6.93,0.59,13.86,1.63,20.71c0.99,6.86,2.63,13.61,3.66,20.49
			c0.5,3.44,0.79,6.91,0.87,10.39l0,2.61c0,0.87-0.1,1.74-0.14,2.6l-0.36,5.21c-0.87,6.91-2.49,13.7-4.81,20.27
			c-4.81,13.07-12.2,25.11-21.2,35.71c-2.23,2.67-4.61,5.21-7.06,7.68c-2.43,2.49-5.14,4.7-7.73,7.02
			c-5.42,4.37-11.2,8.31-17.3,11.67c-12.24,6.69-25.71,10.96-39.45,13.2c-6.88,1.11-13.82,1.68-20.74,2.19
			c-6.93,0.5-13.91,0.64-20.87,0.23c-13.91-0.73-27.77-4.11-40.24-10.46c-6.23-3.2-11.95-7.28-17.29-11.79
			c-5.28-4.59-9.92-9.89-13.96-15.59c-8.08-11.44-13.34-24.71-16.09-38.39c-2.78-13.69-2.76-27.98,0.17-41.65
			c1.45-6.84,3.59-13.53,6.34-19.96c1.34-3.23,2.92-6.35,4.55-9.44c1.69-3.06,3.49-6.06,5.45-8.96c1.95-2.89,4.05-5.71,6.34-8.38
			c2.29-2.67,4.91-5.09,7.69-7.23c2.78-2.14,5.61-4.11,8.31-6.25c2.72-2.11,5.29-4.4,7.8-6.76c4.99-4.75,9.61-9.9,14.17-15.12
			c4.54-5.22,8.89-10.59,12.86-16.23c8-11.24,14.41-23.6,18.88-36.64c4.46-13.04,6.98-26.74,7.52-40.51l0.24-6.08l1.6,5.85
			c2.23,8.15,3.62,16.42,4.35,24.79c0.71,8.36,0.65,16.83-0.68,25.17c-0.67,4.16-1.68,8.29-3.14,12.27l-0.55,1.49l-0.63,1.46
			c-0.4,0.99-0.87,1.94-1.36,2.88c-0.45,0.96-1,1.87-1.54,2.79c-0.52,0.94-1.12,1.8-1.51,2.62c-0.04,0.09-0.09,0.2-0.1,0.24
			c-0.01,0.04-0.01,0.05,0-0.02c-0.06,0.06,0.19-0.47-0.6-0.84c-0.43-0.1-0.5,0.01-0.51,0c0,0,0.02-0.01,0.05-0.03
			c0.07-0.04,0.15-0.1,0.24-0.17c0.35-0.28,0.73-0.62,1.1-0.97c0.73-0.7,1.45-1.44,2.17-2.19c1.43-1.5,2.83-3.03,4.22-4.58
			c2.78-3.09,5.51-6.24,8.2-9.41c10.94-12.47,19.28-27.05,25.01-42.6c2.9-7.77,5.15-15.76,7.18-23.83c1.04-4.02,1.9-8.06,2.55-12.15
			c0.67-4.09,1.06-8.19,1.52-12.38c0.07-0.53,0.14-1.06,0.24-1.6c0.13-0.56,0.17-1.08,0.57-1.81c0.1-0.17,0.25-0.4,0.54-0.6
			c0.27-0.21,0.74-0.31,1.08-0.24c0.7,0.15,0.95,0.5,1.21,0.75c0.44,0.53,0.71,1.04,0.95,1.55c0.93,2.03,1.47,4.07,1.99,6.12
			c1,4.11,1.69,8.25,2.24,12.41c1.08,8.32,1.57,16.7,1.5,25.08c-0.03,4.2-0.27,8.38-0.52,12.54c-0.26,4.17-0.6,8.35-1.11,12.51
			c-0.53,4.16-1.25,8.3-2.15,12.41c-0.97,4.09-2.11,8.15-3.57,12.1c-2.9,7.91-6.99,15.4-12.13,22.09c-1.31,1.66-2.67,3.28-4.19,4.79
			c-1.51,1.51-3.19,2.85-4.86,4.11c-3.36,2.5-6.62,5.01-9.76,7.73c-6.29,5.4-12.18,11.3-18.16,17.11
			c-5.92,5.85-11.8,11.75-16.83,18.31c-2.51,3.28-4.8,6.72-6.85,10.31c-2.06,3.61-4.06,7.25-5.84,10.98
			c-3.55,7.46-6.34,15.33-7.55,23.48c-2.77,16.28,2.49,33.5,13.68,45.6c2.75,3.05,5.81,5.85,9.11,8.31c1.64,1.24,3.35,2.4,5.11,3.46
			c0.87,0.55,1.8,1,2.7,1.48c0.91,0.47,1.81,0.97,2.74,1.42c7.48,3.44,15.61,5.44,23.84,5.9c8.23,0.37,16.54-0.63,24.43-3.08
			c7.85-2.52,15.33-6.31,21.78-11.45c3.24-2.56,6.17-5.48,8.88-8.59c2.68-3.14,5.02-6.56,7.1-10.12c2.09-3.56,3.77-7.36,5.19-11.23
			c1.4-3.89,2.51-7.88,3.2-11.96c0.71-4.07,1.04-8.21,0.97-12.33c-0.07-2.05-0.27-4.1-0.67-6.11c-0.4-2.01-1-3.99-1.61-5.98
			c-1.26-3.96-2.53-7.96-3.6-12c-1.09-4.04-2.03-8.11-2.92-12.19c-0.85-4.09-1.65-8.18-2.42-12.28c-0.78-4.1-1.52-8.21-2.15-12.34
			c-1.27-8.26-1.91-16.66-1.42-25.02c0.89-16.74,5.66-33.14,13.1-48.09l0.63,0.28c-2.11,5.78-3.5,11.86-4.41,17.97
			c-0.88,6.12-1.23,12.32-0.93,18.5c0.31,6.18,1.25,12.33,2.94,18.28c1.65,5.96,4.14,11.68,7.22,17.04l-0.01-0.02l16.09,21.04
			l-0.17,0.03L407,230z M407,230l-11.77,39.03l-0.06,0.18l-0.12-0.15l-16.19-20.96l-0.01-0.01l-0.01-0.01
			c-3.12-5.37-5.65-11.11-7.34-17.1c-1.73-5.98-2.71-12.16-3.05-18.37c-0.33-6.21-0.02-12.45,0.84-18.61
			c0.89-6.16,2.24-12.25,4.36-18.13l0.63,0.28c-7.34,14.91-11.99,31.22-12.79,47.83c-0.93,16.65,2.91,33.07,6.14,49.37
			c0.89,4.06,1.84,8.11,2.93,12.12c1.08,4.01,2.35,7.97,3.63,11.95c0.62,2,1.24,4.01,1.66,6.09c0.42,2.08,0.63,4.2,0.71,6.31
			c0.08,4.22-0.25,8.42-0.96,12.57c-0.7,4.15-1.81,8.22-3.23,12.18c-1.43,3.95-3.13,7.82-5.25,11.45
			c-2.11,3.64-4.49,7.13-7.21,10.34c-2.76,3.18-5.75,6.17-9.04,8.8c-6.58,5.27-14.21,9.16-22.21,11.75
			c-8.04,2.52-16.52,3.57-24.94,3.21c-8.42-0.45-16.75-2.47-24.43-5.98c-0.95-0.46-1.88-0.97-2.81-1.45
			c-0.93-0.5-1.88-0.96-2.78-1.51c-1.81-1.09-3.56-2.27-5.25-3.54c-3.39-2.51-6.53-5.36-9.36-8.49
			c-5.66-6.25-10.14-13.7-12.48-21.85c-0.29-1.02-0.61-2.03-0.88-3.05l-0.61-3.12l-0.3-1.56l-0.17-1.58l-0.33-3.16
			c-0.15-4.23-0.07-8.47,0.61-12.65c1.24-8.37,4.08-16.4,7.68-23.97c1.81-3.79,3.82-7.47,5.89-11.1c2.08-3.65,4.42-7.17,6.97-10.51
			c5.12-6.69,11.05-12.64,16.98-18.51c5.97-5.82,11.87-11.74,18.23-17.21c3.16-2.74,6.51-5.32,9.84-7.8
			c1.65-1.25,3.24-2.53,4.68-3.96c1.44-1.43,2.76-3,4.03-4.62c5.01-6.54,9-13.85,11.83-21.6c1.42-3.87,2.54-7.86,3.49-11.88
			c0.89-4.04,1.59-8.12,2.11-12.23c0.5-4.11,0.84-8.25,1.09-12.4c0.24-4.16,0.48-8.3,0.5-12.44c0.06-8.29-0.43-16.59-1.51-24.81
			c-0.55-4.1-1.23-8.2-2.21-12.19c-0.5-1.98-1.06-3.99-1.87-5.75c-0.2-0.43-0.44-0.84-0.66-1.11c-0.09-0.13-0.24-0.17-0.06-0.11
			c0.08,0.02,0.27-0.02,0.34-0.07c0.07-0.05,0.06-0.07,0.04-0.01c-0.12,0.18-0.25,0.72-0.33,1.17c-0.09,0.48-0.15,0.98-0.22,1.49
			c-0.45,4.1-0.84,8.31-1.52,12.45c-0.66,4.15-1.53,8.27-2.57,12.32c-2.03,8.1-4.29,16.18-7.22,24.04
			c-5.77,15.74-14.3,30.57-25.38,43.18c-2.71,3.18-5.45,6.33-8.24,9.44c-1.4,1.55-2.81,3.1-4.26,4.62
			c-0.73,0.76-1.46,1.51-2.24,2.25c-0.39,0.37-0.78,0.73-1.25,1.1c-0.12,0.09-0.25,0.19-0.4,0.28c-0.09,0.05-0.18,0.1-0.3,0.16
			c-0.13,0.04-0.33,0.19-0.88,0.07c-0.92-0.43-0.68-1.12-0.72-1.18c0.02-0.2,0.06-0.31,0.09-0.4c0.07-0.2,0.13-0.33,0.19-0.48
			c0.51-1.05,1.12-1.91,1.61-2.79c0.52-0.88,1.05-1.75,1.48-2.68c0.47-0.91,0.92-1.82,1.31-2.77l0.61-1.41l0.53-1.44
			c1.41-3.85,2.4-7.85,3.06-11.92c1.31-8.14,1.38-16.47,0.68-24.71c-0.71-8.23-2.1-16.48-4.26-24.42l1.83-0.23
			c-0.55,13.95-3.12,27.83-7.65,41.03c-4.54,13.21-11.05,25.73-19.15,37.08c-4.02,5.7-8.41,11.12-12.98,16.37
			c-4.57,5.22-9.23,10.41-14.3,15.23c-2.54,2.39-5.16,4.72-7.93,6.86c-2.74,2.17-5.61,4.16-8.33,6.25c-2.72,2.09-5.23,4.4-7.46,6.99
			c-2.22,2.6-4.29,5.35-6.21,8.2c-1.93,2.85-3.7,5.8-5.37,8.81c-1.61,3.04-3.17,6.12-4.49,9.29c-2.71,6.33-4.82,12.91-6.26,19.63
			c-2.92,13.45-2.98,27.49-0.28,41c2.68,13.5,7.83,26.58,15.75,37.86c3.96,5.62,8.51,10.84,13.69,15.38
			c5.24,4.46,10.85,8.49,16.98,11.65c12.26,6.28,25.92,9.66,39.7,10.42c6.89,0.43,13.81,0.31,20.72-0.17
			c6.91-0.49,13.82-1.03,20.64-2.12c13.63-2.19,27-6.38,39.15-12.98c6.06-3.31,11.81-7.18,17.2-11.49c2.58-2.29,5.28-4.46,7.7-6.93
			c2.44-2.44,4.82-4.95,7.05-7.6c8.99-10.5,16.4-22.43,21.24-35.39c2.33-6.51,3.98-13.26,4.88-20.12l0.38-5.17
			c0.05-0.86,0.15-1.72,0.15-2.59l0.01-2.59c-0.06-3.46-0.34-6.91-0.82-10.34c-0.99-6.85-2.6-13.62-3.56-20.5
			c-1.01-6.87-1.51-13.81-1.53-20.75C402.8,257.47,404.21,243.59,407,230z"/>
	</g>
</g>
</svg>
