<svg width="174" height="128" viewBox="0 0 174 128" fill="none" xmlns="http://www.w3.org/2000/svg">
<g clip-path="url(#clip0_145_40)">
<path d="M81.3949 101.327L84.1437 100.095L80.701 88.6355L76.6438 90.4529L81.3949 101.327Z" fill="#FFB6B6"/>
<path d="M79.426 98.2154L83.538 95.3083L84.6729 97.1399L90.4719 97.4256C90.7584 97.4397 91.0328 97.545 91.2551 97.7263C91.4775 97.9076 91.6362 98.1553 91.708 98.4332C91.7798 98.7112 91.761 99.0048 91.6542 99.2713C91.5475 99.5377 91.3585 99.7631 91.1149 99.9144L86.0312 103.072L84.0323 101.804L84.8128 103.828L82.896 105.019L79.426 98.2154Z" fill="#2F2E41"/>
<path d="M152.005 79.636C152.005 78.4835 151.618 77.5481 151.144 77.546H21.7408C21.264 77.5481 20.8796 78.4835 20.8774 79.636V127.079C20.8774 127.186 20.8377 127.289 20.7658 127.369C20.694 127.448 20.5953 127.498 20.4889 127.508C20.1416 127.541 19.7943 127.572 19.447 127.601C19.4384 127.601 19.4298 127.603 19.4212 127.603C19.2322 127.621 19.0432 127.633 18.8542 127.648H18.852C18.7548 127.469 18.6587 127.287 18.5637 127.104C18.5316 127.042 18.5149 126.974 18.5148 126.904V76.9245C18.5148 76.6063 18.5277 76.2859 18.5492 75.9698C18.5799 75.5358 18.6336 75.1037 18.7103 74.6754C19.0733 72.6778 19.8937 71.3253 20.8259 71.321H152.056C152.192 71.322 152.327 71.3505 152.452 71.4049C152.635 71.4861 152.8 71.6022 152.939 71.7468C153.128 71.9428 153.289 72.1634 153.418 72.4026C153.878 73.2132 154.206 74.4217 154.322 75.8279C154.322 75.8408 154.325 75.8537 154.325 75.8666C154.355 76.215 154.37 76.5698 154.367 76.9245L154.398 81.5325L154.417 84.2805L154.475 92.9029L154.496 95.9648L154.591 127.401C154.591 127.515 154.546 127.625 154.465 127.705C154.384 127.786 154.275 127.831 154.161 127.831H152.434C152.321 127.831 152.211 127.786 152.131 127.705C152.05 127.625 152.005 127.515 152.005 127.401V79.636Z" fill="#E6E6E6"/>
<path d="M116.842 49.7595H102.899C102.701 49.7598 102.512 49.8385 102.373 49.9784C102.234 50.1182 102.156 50.3076 102.156 50.5051V72.5565H117.587V50.5051C117.587 50.4072 117.568 50.3102 117.53 50.2197C117.493 50.1292 117.438 50.047 117.369 49.9778C117.3 49.9085 117.217 49.8536 117.127 49.8162C117.037 49.7787 116.94 49.7595 116.842 49.7595V49.7595ZM109.917 62.2888C109.481 62.2868 109.064 62.1125 108.755 61.8038C108.447 61.4951 108.273 61.077 108.271 60.6405V58.0971C108.271 57.6602 108.445 57.2414 108.754 56.9327C109.062 56.624 109.481 56.4506 109.917 56.4506C110.354 56.4506 110.772 56.624 111.081 56.9327C111.389 57.2414 111.563 57.6602 111.564 58.0971V60.6405C111.562 61.077 111.388 61.4951 111.079 61.8038C110.771 62.1125 110.353 62.2868 109.917 62.2888Z" fill="#2F2E41"/>
<path d="M102.108 71.8511V73.9786C102.108 74.0888 102.152 74.1945 102.23 74.2724C102.308 74.3504 102.413 74.3943 102.523 74.3945H117.219C117.329 74.394 117.434 74.35 117.512 74.2721C117.59 74.1942 117.634 74.0887 117.635 73.9786V71.8511H102.108Z" fill="#3F3D56"/>
<path d="M84.1932 19.0508C84.0327 19.4553 83.7856 19.8196 83.4693 20.1181C83.1529 20.4165 82.775 20.642 82.3623 20.7785C81.9495 20.9149 81.5118 20.9591 81.0802 20.908C80.6485 20.8568 80.2332 20.7115 79.8637 20.4823L60.1817 34.2091L59.6383 28.7388L78.9904 16.1866C79.4161 15.5907 80.0455 15.1718 80.7591 15.0093C81.4728 14.8469 82.2212 14.9521 82.8625 15.3052C83.5038 15.6582 83.9935 16.2345 84.2388 16.9249C84.484 17.6152 84.4678 18.3716 84.1932 19.0508V19.0508Z" fill="#FFB6B6"/>
<path d="M40.1264 27.7058C40.1264 27.7058 37.9953 30.8584 41.3395 33.6482C44.6838 36.4381 58.2386 35.8831 60.426 35.8591C62.6135 35.8351 72.6498 25.4411 72.6498 25.4411L72.5841 19.4382L60.4666 26.6363L40.1264 27.7058Z" fill="#5D93D2"/>
<path d="M38.9198 48.6367L39.1345 52.7221C39.1345 52.7221 38.5006 56.341 39.022 57.122C39.5394 57.8991 53.7491 59.0551 53.7491 59.0551C53.7491 59.0551 53.3036 52.9621 54.1072 48.5549L38.9198 48.6367Z" fill="#FFB6B6"/>
<path d="M82.5296 90.2334L77.0599 95.0269L66.3395 73.0771C55.7089 74.9075 45.6798 75.4938 37.0051 73.2796C34.0681 72.5403 32.2728 69.5042 32.9952 66.4983C33.0289 66.3578 33.068 66.2188 33.1123 66.0813C34.1505 62.9101 36.8681 60.6663 39.0093 57.1785L54.6488 57.4163L52.902 63.4503L68.0948 61.4821C71.1501 61.0863 73.9405 63.3003 74.3272 66.4272C74.3476 66.5924 74.361 66.7581 74.3672 66.9246L82.5296 90.2334Z" fill="#2F2E41"/>
<path d="M45.0265 21.1432C48.5338 21.1432 51.377 18.2968 51.377 14.7855C51.377 11.2742 48.5338 8.42773 45.0265 8.42773C41.5191 8.42773 38.6759 11.2742 38.6759 14.7855C38.6759 18.2968 41.5191 21.1432 45.0265 21.1432Z" fill="#FFB6B6"/>
<path d="M41.3034 23.4385L47.1263 24.1243C47.3719 24.1532 47.6023 24.2581 47.7855 24.4243C47.9687 24.5906 48.0955 24.8099 48.1483 25.0517L49.0743 29.2939L54.8469 36.0995C54.8469 36.0995 56.9197 39.9906 56.1424 44.4004C55.6746 47.0559 54.8654 49.6396 53.7348 52.087C53.7348 52.087 39.5387 57.8995 39.0205 57.1212C38.5023 56.343 38.3341 52.8082 38.3341 52.8082L36.5077 32.4666C36.4032 31.3948 36.5368 30.3131 36.8991 29.2992C37.2614 28.2852 37.8432 27.364 38.603 26.6018C39.0638 26.148 39.5186 25.8304 39.8888 25.8304C40.7249 25.8021 40.6176 23.9182 41.3034 23.4385Z" fill="#5D93D2"/>
<path d="M53.7979 109.85L56.5 111.175L63.005 101.138L59.0168 99.1826L53.7979 109.85Z" fill="#FFB6B6"/>
<path d="M60.2708 107.581L54.7195 105.471L62.3386 82.5616C51.9876 79.5233 44.1798 74.6295 37.3626 68.8205C35.0499 66.863 33.3156 64.3491 35.2852 61.9679C35.3772 61.8566 35.4734 61.7489 35.5736 61.645C37.8995 59.2544 43.8022 59.7143 47.2577 57.5251L54.9858 65.7854L54.5016 67.9982L69.0101 72.9219C71.9278 73.9121 73.4607 77.1293 72.4339 80.1077C72.3797 80.265 72.3189 80.4198 72.2513 80.572L60.2708 107.581Z" fill="#2F2E41"/>
<path d="M53.7057 108.25L58.3503 110.194L57.4032 112.13L60.2419 117.2C60.3821 117.45 60.4388 117.739 60.4035 118.024C60.3682 118.309 60.2429 118.575 60.0458 118.784C59.8487 118.992 59.5902 119.132 59.308 119.183C59.0258 119.234 58.7347 119.194 58.4772 119.067L53.1048 116.433L53.1156 114.064L51.8172 115.801L49.7916 114.808L53.7057 108.25Z" fill="#2F2E41"/>
<path d="M44.6233 73.1727C44.2591 72.9351 43.9514 72.6205 43.7218 72.2509C43.4922 71.8814 43.3463 71.466 43.2944 71.0339C43.2425 70.6018 43.2859 70.1636 43.4215 69.7501C43.557 69.3366 43.7815 68.9579 44.0791 68.6407L34.5367 46.6084L40.0002 47.1584L48.4579 68.6343C48.9571 69.1701 49.2426 69.8706 49.2603 70.6031C49.2781 71.3356 49.0268 72.0492 48.5542 72.6086C48.0815 73.168 47.4203 73.5344 46.6958 73.6384C45.9713 73.7424 45.2339 73.5767 44.6233 73.1727V73.1727Z" fill="#FFB6B6"/>
<path d="M44.8753 28.2156C44.8753 28.2156 42.2107 25.5 38.8169 28.2293C35.4232 30.9586 33.2825 44.3699 32.8728 46.5212C32.4632 48.6725 40.6524 60.5794 40.6524 60.5794L46.5428 61.7036L41.8947 48.3873L44.8753 28.2156Z" fill="#5D93D2"/>
<path d="M139.931 15.3459H80.3285C79.8164 15.3468 79.3255 15.5508 78.9634 15.9133C78.6013 16.2758 78.3975 16.7672 78.3967 17.2799V57.5454C78.3972 58.0582 78.6009 58.5498 78.9631 58.9123C79.3252 59.2749 79.8163 59.4788 80.3285 59.4793H139.931C140.443 59.4788 140.934 59.2749 141.296 58.9123C141.659 58.5498 141.862 58.0582 141.863 57.5454V17.2799C141.862 16.7672 141.658 16.2758 141.296 15.9133C140.934 15.5508 140.443 15.3468 139.931 15.3459V15.3459Z" fill="#3F3D56"/>
<path d="M139.433 16.7427H80.8264C80.5522 16.7433 80.2895 16.8527 80.0958 17.047C79.9021 17.2413 79.7934 17.5046 79.7933 17.7791V57.0466C79.7938 57.3208 79.9028 57.5835 80.0964 57.7774C80.2901 57.9713 80.5526 58.0804 80.8264 58.0809H139.433C139.707 58.0804 139.97 57.9713 140.163 57.7774C140.357 57.5835 140.466 57.3208 140.467 57.0466V17.7791C140.467 17.5046 140.358 17.2413 140.164 17.047C139.97 16.8527 139.708 16.7433 139.433 16.7427Z" fill="white"/>
<path d="M128.018 75.1348H93.1498C93.0543 75.1348 92.9601 75.1135 92.8739 75.0724C92.7878 75.0313 92.7118 74.9715 92.6517 74.8973C92.5916 74.8231 92.5487 74.7364 92.5263 74.6435C92.5039 74.5506 92.5025 74.4539 92.5221 74.3604L93.0631 71.7879C93.0939 71.644 93.173 71.515 93.2871 71.4222C93.4013 71.3295 93.5437 71.2786 93.6907 71.2781H127.477C127.624 71.2786 127.766 71.3295 127.88 71.4222C127.995 71.515 128.074 71.644 128.104 71.7879L128.645 74.3604C128.665 74.4539 128.664 74.5506 128.641 74.6435C128.619 74.7364 128.576 74.8231 128.516 74.8973C128.456 74.9715 128.38 75.0313 128.294 75.0724C128.207 75.1135 128.113 75.1348 128.018 75.1348H128.018Z" fill="#2F2E41"/>
<path d="M94.9074 71.7415H94.0432C93.9853 71.7415 93.9384 71.7885 93.9384 71.8464V72.2816C93.9384 72.3395 93.9853 72.3865 94.0432 72.3865H94.9074C94.9653 72.3865 95.0123 72.3395 95.0123 72.2816V71.8464C95.0123 71.7885 94.9653 71.7415 94.9074 71.7415Z" fill="#3F3D56"/>
<path d="M97.0552 71.7415H96.191C96.1331 71.7415 96.0861 71.7885 96.0861 71.8464V72.2816C96.0861 72.3395 96.1331 72.3865 96.191 72.3865H97.0552C97.1131 72.3865 97.16 72.3395 97.16 72.2816V71.8464C97.16 71.7885 97.1131 71.7415 97.0552 71.7415Z" fill="#3F3D56"/>
<path d="M99.203 71.7415H98.3388C98.2809 71.7415 98.2339 71.7885 98.2339 71.8464V72.2816C98.2339 72.3395 98.2809 72.3865 98.3388 72.3865H99.203C99.2609 72.3865 99.3078 72.3395 99.3078 72.2816V71.8464C99.3078 71.7885 99.2609 71.7415 99.203 71.7415Z" fill="#3F3D56"/>
<path d="M101.351 71.7415H100.487C100.429 71.7415 100.382 71.7885 100.382 71.8464V72.2816C100.382 72.3395 100.429 72.3865 100.487 72.3865H101.351C101.409 72.3865 101.456 72.3395 101.456 72.2816V71.8464C101.456 71.7885 101.409 71.7415 101.351 71.7415Z" fill="#3F3D56"/>
<path d="M103.499 71.7415H102.634C102.576 71.7415 102.53 71.7885 102.53 71.8464V72.2816C102.53 72.3395 102.576 72.3865 102.634 72.3865H103.499C103.556 72.3865 103.603 72.3395 103.603 72.2816V71.8464C103.603 71.7885 103.556 71.7415 103.499 71.7415Z" fill="#3F3D56"/>
<path d="M105.646 71.7415H104.782C104.724 71.7415 104.677 71.7885 104.677 71.8464V72.2816C104.677 72.3395 104.724 72.3865 104.782 72.3865H105.646C105.704 72.3865 105.751 72.3395 105.751 72.2816V71.8464C105.751 71.7885 105.704 71.7415 105.646 71.7415Z" fill="#3F3D56"/>
<path d="M107.794 71.7415H106.93C106.872 71.7415 106.825 71.7885 106.825 71.8464V72.2816C106.825 72.3395 106.872 72.3865 106.93 72.3865H107.794C107.852 72.3865 107.899 72.3395 107.899 72.2816V71.8464C107.899 71.7885 107.852 71.7415 107.794 71.7415Z" fill="#3F3D56"/>
<path d="M109.942 71.7415H109.078C109.02 71.7415 108.973 71.7885 108.973 71.8464V72.2816C108.973 72.3395 109.02 72.3865 109.078 72.3865H109.942C110 72.3865 110.047 72.3395 110.047 72.2816V71.8464C110.047 71.7885 110 71.7415 109.942 71.7415Z" fill="#3F3D56"/>
<path d="M112.09 71.7415H111.226C111.168 71.7415 111.121 71.7885 111.121 71.8464V72.2816C111.121 72.3395 111.168 72.3865 111.226 72.3865H112.09C112.148 72.3865 112.195 72.3395 112.195 72.2816V71.8464C112.195 71.7885 112.148 71.7415 112.09 71.7415Z" fill="#3F3D56"/>
<path d="M114.238 71.7415H113.373C113.315 71.7415 113.269 71.7885 113.269 71.8464V72.2816C113.269 72.3395 113.315 72.3865 113.373 72.3865H114.238C114.296 72.3865 114.342 72.3395 114.342 72.2816V71.8464C114.342 71.7885 114.296 71.7415 114.238 71.7415Z" fill="#3F3D56"/>
<path d="M116.385 71.7415H115.521C115.463 71.7415 115.416 71.7885 115.416 71.8464V72.2816C115.416 72.3395 115.463 72.3865 115.521 72.3865H116.385C116.443 72.3865 116.49 72.3395 116.49 72.2816V71.8464C116.49 71.7885 116.443 71.7415 116.385 71.7415Z" fill="#3F3D56"/>
<path d="M118.533 71.7415H117.669C117.611 71.7415 117.564 71.7885 117.564 71.8464V72.2816C117.564 72.3395 117.611 72.3865 117.669 72.3865H118.533C118.591 72.3865 118.638 72.3395 118.638 72.2816V71.8464C118.638 71.7885 118.591 71.7415 118.533 71.7415Z" fill="#3F3D56"/>
<path d="M120.681 71.7415H119.817C119.759 71.7415 119.712 71.7885 119.712 71.8464V72.2816C119.712 72.3395 119.759 72.3865 119.817 72.3865H120.681C120.739 72.3865 120.786 72.3395 120.786 72.2816V71.8464C120.786 71.7885 120.739 71.7415 120.681 71.7415Z" fill="#3F3D56"/>
<path d="M122.829 71.7415H121.965C121.907 71.7415 121.86 71.7885 121.86 71.8464V72.2816C121.86 72.3395 121.907 72.3865 121.965 72.3865H122.829C122.887 72.3865 122.934 72.3395 122.934 72.2816V71.8464C122.934 71.7885 122.887 71.7415 122.829 71.7415Z" fill="#3F3D56"/>
<path d="M124.977 71.7415H124.112C124.055 71.7415 124.008 71.7885 124.008 71.8464V72.2816C124.008 72.3395 124.055 72.3865 124.112 72.3865H124.977C125.035 72.3865 125.081 72.3395 125.081 72.2816V71.8464C125.081 71.7885 125.035 71.7415 124.977 71.7415Z" fill="#3F3D56"/>
<path d="M127.124 71.7415H126.26C126.202 71.7415 126.155 71.7885 126.155 71.8464V72.2816C126.155 72.3395 126.202 72.3865 126.26 72.3865H127.124C127.182 72.3865 127.229 72.3395 127.229 72.2816V71.8464C127.229 71.7885 127.182 71.7415 127.124 71.7415Z" fill="#3F3D56"/>
<path d="M94.882 72.8164H94.0178C93.9599 72.8164 93.913 72.8634 93.913 72.9214V73.3565C93.913 73.4145 93.9599 73.4615 94.0178 73.4615H94.882C94.9399 73.4615 94.9869 73.4145 94.9869 73.3565V72.9214C94.9869 72.8634 94.9399 72.8164 94.882 72.8164Z" fill="#3F3D56"/>
<path d="M97.0298 72.8164H96.1656C96.1077 72.8164 96.0608 72.8634 96.0608 72.9214V73.3565C96.0608 73.4145 96.1077 73.4615 96.1656 73.4615H97.0298C97.0877 73.4615 97.1347 73.4145 97.1347 73.3565V72.9214C97.1347 72.8634 97.0877 72.8164 97.0298 72.8164Z" fill="#3F3D56"/>
<path d="M99.1776 72.8164H98.3134C98.2555 72.8164 98.2086 72.8634 98.2086 72.9214V73.3565C98.2086 73.4145 98.2555 73.4615 98.3134 73.4615H99.1776C99.2355 73.4615 99.2825 73.4145 99.2825 73.3565V72.9214C99.2825 72.8634 99.2355 72.8164 99.1776 72.8164Z" fill="#3F3D56"/>
<path d="M101.325 72.8164H100.461C100.403 72.8164 100.356 72.8634 100.356 72.9214V73.3565C100.356 73.4145 100.403 73.4615 100.461 73.4615H101.325C101.383 73.4615 101.43 73.4145 101.43 73.3565V72.9214C101.43 72.8634 101.383 72.8164 101.325 72.8164Z" fill="#3F3D56"/>
<path d="M103.473 72.8164H102.609C102.551 72.8164 102.504 72.8634 102.504 72.9214V73.3565C102.504 73.4145 102.551 73.4615 102.609 73.4615H103.473C103.531 73.4615 103.578 73.4145 103.578 73.3565V72.9214C103.578 72.8634 103.531 72.8164 103.473 72.8164Z" fill="#3F3D56"/>
<path d="M105.621 72.8164H104.757C104.699 72.8164 104.652 72.8634 104.652 72.9214V73.3565C104.652 73.4145 104.699 73.4615 104.757 73.4615H105.621C105.679 73.4615 105.726 73.4145 105.726 73.3565V72.9214C105.726 72.8634 105.679 72.8164 105.621 72.8164Z" fill="#3F3D56"/>
<path d="M107.769 72.8164H106.905C106.847 72.8164 106.8 72.8634 106.8 72.9214V73.3565C106.8 73.4145 106.847 73.4615 106.905 73.4615H107.769C107.827 73.4615 107.874 73.4145 107.874 73.3565V72.9214C107.874 72.8634 107.827 72.8164 107.769 72.8164Z" fill="#3F3D56"/>
<path d="M109.917 72.8164H109.052C108.995 72.8164 108.948 72.8634 108.948 72.9214V73.3565C108.948 73.4145 108.995 73.4615 109.052 73.4615H109.917C109.975 73.4615 110.021 73.4145 110.021 73.3565V72.9214C110.021 72.8634 109.975 72.8164 109.917 72.8164Z" fill="#3F3D56"/>
<path d="M112.064 72.8164H111.2C111.142 72.8164 111.095 72.8634 111.095 72.9214V73.3565C111.095 73.4145 111.142 73.4615 111.2 73.4615H112.064C112.122 73.4615 112.169 73.4145 112.169 73.3565V72.9214C112.169 72.8634 112.122 72.8164 112.064 72.8164Z" fill="#3F3D56"/>
<path d="M114.212 72.8164H113.348C113.29 72.8164 113.243 72.8634 113.243 72.9214V73.3565C113.243 73.4145 113.29 73.4615 113.348 73.4615H114.212C114.27 73.4615 114.317 73.4145 114.317 73.3565V72.9214C114.317 72.8634 114.27 72.8164 114.212 72.8164Z" fill="#3F3D56"/>
<path d="M116.36 72.8164H115.496C115.438 72.8164 115.391 72.8634 115.391 72.9214V73.3565C115.391 73.4145 115.438 73.4615 115.496 73.4615H116.36C116.418 73.4615 116.465 73.4145 116.465 73.3565V72.9214C116.465 72.8634 116.418 72.8164 116.36 72.8164Z" fill="#3F3D56"/>
<path d="M118.508 72.8164H117.644C117.586 72.8164 117.539 72.8634 117.539 72.9214V73.3565C117.539 73.4145 117.586 73.4615 117.644 73.4615H118.508C118.566 73.4615 118.613 73.4145 118.613 73.3565V72.9214C118.613 72.8634 118.566 72.8164 118.508 72.8164Z" fill="#3F3D56"/>
<path d="M120.656 72.8164H119.791C119.734 72.8164 119.687 72.8634 119.687 72.9214V73.3565C119.687 73.4145 119.734 73.4615 119.791 73.4615H120.656C120.714 73.4615 120.76 73.4145 120.76 73.3565V72.9214C120.76 72.8634 120.714 72.8164 120.656 72.8164Z" fill="#3F3D56"/>
<path d="M122.803 72.8164H121.939C121.881 72.8164 121.834 72.8634 121.834 72.9214V73.3565C121.834 73.4145 121.881 73.4615 121.939 73.4615H122.803C122.861 73.4615 122.908 73.4145 122.908 73.3565V72.9214C122.908 72.8634 122.861 72.8164 122.803 72.8164Z" fill="#3F3D56"/>
<path d="M124.951 72.8164H124.087C124.029 72.8164 123.982 72.8634 123.982 72.9214V73.3565C123.982 73.4145 124.029 73.4615 124.087 73.4615H124.951C125.009 73.4615 125.056 73.4145 125.056 73.3565V72.9214C125.056 72.8634 125.009 72.8164 124.951 72.8164Z" fill="#3F3D56"/>
<path d="M127.099 72.8164H126.235C126.177 72.8164 126.13 72.8634 126.13 72.9214V73.3565C126.13 73.4145 126.177 73.4615 126.235 73.4615H127.099C127.157 73.4615 127.204 73.4145 127.204 73.3565V72.9214C127.204 72.8634 127.157 72.8164 127.099 72.8164Z" fill="#3F3D56"/>
<path d="M112.709 74.1067H104.327C104.269 74.1067 104.222 74.1537 104.222 74.2117V74.6468C104.222 74.7048 104.269 74.7518 104.327 74.7518H112.709C112.767 74.7518 112.814 74.7048 112.814 74.6468V74.2117C112.814 74.1537 112.767 74.1067 112.709 74.1067Z" fill="#3F3D56"/>
<path d="M135.397 124.211L133.741 121.547L133.41 123.069C133.352 123.336 133.294 123.607 133.241 123.875C132.77 123.473 132.27 123.101 131.78 122.744C130.277 121.652 128.774 120.558 127.272 119.463L127.742 122.194C128.032 123.875 128.335 125.591 129.053 127.129C129.132 127.303 129.218 127.475 129.31 127.643H136.299C136.355 127.487 136.394 127.325 136.415 127.161C136.417 127.15 136.418 127.139 136.417 127.129C136.527 126.086 135.951 125.103 135.397 124.211Z" fill="#F0F0F0"/>
<path d="M40.894 124.211L39.238 121.547L38.9073 123.069C38.8493 123.336 38.7913 123.607 38.7376 123.875C38.2672 123.473 37.7668 123.101 37.2771 122.744C35.7737 121.652 34.2709 120.558 32.7689 119.463L33.2392 122.194C33.5292 123.875 33.8321 125.591 34.5494 127.129C34.6289 127.303 34.7148 127.475 34.8072 127.643H41.7961C41.8523 127.487 41.8912 127.325 41.9121 127.161C41.9138 127.15 41.9145 127.139 41.9142 127.129C42.0238 126.086 41.4481 125.103 40.894 124.211Z" fill="#F0F0F0"/>
<path d="M173.744 127.934L114.519 128C114.451 128 114.386 127.973 114.338 127.925C114.291 127.877 114.264 127.812 114.264 127.744C114.264 127.676 114.291 127.611 114.338 127.563C114.386 127.515 114.451 127.488 114.519 127.488L173.744 127.422C173.812 127.422 173.877 127.449 173.925 127.497C173.972 127.545 173.999 127.61 173.999 127.678C173.999 127.746 173.972 127.811 173.925 127.859C173.877 127.907 173.812 127.934 173.744 127.934V127.934Z" fill="#CACACA"/>
<path d="M59.4813 127.934L0.255728 128C0.188031 128 0.123175 127.973 0.0753758 127.925C0.0275761 127.877 0.000732422 127.812 0.000732422 127.744C0.000732422 127.676 0.0275761 127.611 0.0753758 127.563C0.123175 127.515 0.188031 127.488 0.255728 127.488L59.4813 127.422C59.549 127.422 59.6139 127.449 59.6617 127.497C59.7095 127.545 59.7363 127.61 59.7363 127.678C59.7363 127.746 59.7095 127.811 59.6617 127.859C59.6139 127.907 59.549 127.934 59.4813 127.934V127.934Z" fill="#CACACA"/>
<path d="M38.3107 9.11806C37.2862 9.4234 36.3304 8.56546 35.6173 7.75267L35.8708 8.0537C34.1934 9.23633 33.1903 11.1629 32.5396 13.1132C31.8888 15.0613 31.5258 17.1019 30.7912 19.022C30.0567 20.94 28.8711 22.7957 27.0562 23.7525C24.6249 25.0341 21.6459 24.4514 19.06 23.5268C19.0256 23.5139 18.9934 23.5031 18.959 23.4902C20.0064 21.5316 20.6478 19.3814 20.8448 17.1685C19.781 19.2478 18.2468 21.0495 16.3645 22.4301C14.6748 21.6612 13.05 20.7566 11.5062 19.7252C10.5074 19.0564 9.455 18.192 9.33902 16.9944C9.22089 15.8053 10.1079 14.7194 11.1539 14.1475C12.1999 13.5755 13.4027 13.382 14.5453 13.0379C15.6858 12.696 16.8499 12.1348 17.4491 11.1027C18.8301 8.72887 16.5062 5.38096 17.9882 3.06732C18.7185 1.92984 20.136 1.47399 21.4505 1.15791C23.4568 0.677472 25.4932 0.333369 27.5459 0.127952C29.3479 -0.0526678 31.2101 -0.119324 32.924 0.461238C34.638 1.0418 36.193 2.38999 36.5602 4.16608C37.5611 4.69289 38.62 5.2756 39.1569 6.27546C39.6939 7.27316 39.3953 8.79553 38.3107 9.11806Z" fill="#2F2E41"/>
<path d="M36.7814 8.71812C35.8003 9.94845 35.2663 11.279 35.2663 12.0758C33.2284 15.8048 36.1427 19.0078 39.8675 21.048C41.3532 21.866 43.0686 22.1654 44.7431 21.899L44.8989 21.233L45.1101 21.8329C45.1101 21.8329 47.5352 29.8517 48.3351 30.3221C48.0316 28.8951 47.6839 22.2875 47.5149 20.8947C47.2809 18.9991 48.0965 16.177 48.6847 14.4609C49.0495 13.4032 49.2367 12.2923 49.2387 11.1733V11.1244L49.8115 12.9664L51.8969 12.0758C51.509 9.84794 51.8969 7.31881 47.2456 7.53816C44.73 5.80607 42.5146 5.54223 40.6949 6.03349C40.46 5.67 39.1058 6.35081 38.7145 6.15941" fill="#2F2E41"/>
<path d="M140.467 17.7791V57.0466C140.466 57.3208 140.357 57.5835 140.163 57.7774C139.97 57.9713 139.707 58.0804 139.433 58.0809H118.767C116.481 55.9583 114.605 53.4318 113.235 50.6282C113.144 50.4475 113.058 50.2648 112.977 50.0798C111.728 47.3662 110.971 44.4516 110.743 41.4725C110.728 41.2897 110.715 41.1069 110.707 40.922C110.679 40.449 110.666 39.9695 110.666 39.4878C110.662 36.2845 111.266 33.1096 112.446 30.1322C112.517 29.9472 112.592 29.7645 112.67 29.5817C115.045 23.9939 119.338 19.4402 124.773 16.7427H139.433C139.708 16.7433 139.97 16.8527 140.164 17.047C140.358 17.2413 140.466 17.5046 140.467 17.7791V17.7791Z" fill="#5D93D2"/>
<path d="M136.487 22.153H81.649C81.592 22.1517 81.5377 22.1281 81.4979 22.0873C81.458 22.0465 81.4357 21.9917 81.4357 21.9346C81.4357 21.8775 81.458 21.8227 81.4979 21.7819C81.5377 21.7411 81.592 21.7176 81.649 21.7163H136.487C136.544 21.7176 136.599 21.7411 136.638 21.7819C136.678 21.8227 136.701 21.8775 136.701 21.9346C136.701 21.9917 136.678 22.0465 136.638 22.0873C136.599 22.1281 136.544 22.1517 136.487 22.153Z" fill="#CACACA"/>
<path d="M85.3819 20.6016C86.0878 20.6016 86.6599 20.016 86.6599 19.2936C86.6599 18.5712 86.0878 17.9856 85.3819 17.9856C84.6761 17.9856 84.1039 18.5712 84.1039 19.2936C84.1039 20.016 84.6761 20.6016 85.3819 20.6016Z" fill="#3F3D56"/>
<path d="M89.7969 20.6016C90.5028 20.6016 91.075 20.016 91.075 19.2936C91.075 18.5712 90.5028 17.9856 89.7969 17.9856C89.0911 17.9856 88.5189 18.5712 88.5189 19.2936C88.5189 20.016 89.0911 20.6016 89.7969 20.6016Z" fill="#3F3D56"/>
<path d="M94.212 20.6016C94.9178 20.6016 95.49 20.016 95.49 19.2936C95.49 18.5712 94.9178 17.9856 94.212 17.9856C93.5062 17.9856 92.934 18.5712 92.934 19.2936C92.934 20.016 93.5062 20.6016 94.212 20.6016Z" fill="#3F3D56"/>
<path d="M133.829 18.3098H130.693C130.631 18.311 130.572 18.3366 130.528 18.3811C130.484 18.4255 130.46 18.4853 130.46 18.5476C130.46 18.6098 130.484 18.6696 130.528 18.714C130.572 18.7585 130.631 18.7841 130.693 18.7853H133.829C133.891 18.7841 133.95 18.7585 133.994 18.714C134.038 18.6696 134.062 18.6098 134.062 18.5476C134.062 18.4853 134.038 18.4255 133.994 18.3811C133.95 18.3366 133.891 18.311 133.829 18.3098V18.3098Z" fill="#3F3D56"/>
<path d="M133.829 19.2021H130.693C130.631 19.2034 130.572 19.229 130.528 19.2734C130.484 19.3179 130.46 19.3776 130.46 19.4399C130.46 19.5021 130.484 19.5619 130.528 19.6064C130.572 19.6508 130.631 19.6764 130.693 19.6776H133.829C133.891 19.6764 133.95 19.6508 133.994 19.6064C134.038 19.5619 134.062 19.5021 134.062 19.4399C134.062 19.3776 134.038 19.3179 133.994 19.2734C133.95 19.229 133.891 19.2034 133.829 19.2021V19.2021Z" fill="#3F3D56"/>
<path d="M133.829 20.0935H130.693C130.631 20.0947 130.572 20.1203 130.528 20.1648C130.484 20.2092 130.46 20.269 130.46 20.3312C130.46 20.3935 130.484 20.4533 130.528 20.4977C130.572 20.5422 130.631 20.5677 130.693 20.569H133.829C133.891 20.5677 133.95 20.5422 133.994 20.4977C134.038 20.4533 134.062 20.3935 134.062 20.3312C134.062 20.269 134.038 20.2092 133.994 20.1648C133.95 20.1203 133.891 20.0947 133.829 20.0935V20.0935Z" fill="#3F3D56"/>
<path d="M98.0317 34.9077H91.1794C90.6647 34.9077 90.2474 35.3254 90.2474 35.8407V35.8407C90.2474 36.356 90.6647 36.7737 91.1794 36.7737H98.0317C98.5464 36.7737 98.9636 36.356 98.9636 35.8407C98.9636 35.3254 98.5464 34.9077 98.0317 34.9077Z" fill="#5D93D2"/>
<path d="M102.458 38.6396H86.7527C86.238 38.6396 85.8207 39.0574 85.8207 39.5726C85.8207 40.0879 86.238 40.5056 86.7527 40.5056H102.458C102.973 40.5056 103.39 40.0879 103.39 39.5726C103.39 39.0574 102.973 38.6396 102.458 38.6396Z" fill="#E6E6E6"/>
<path d="M102.458 42.3716H86.7527C86.238 42.3716 85.8207 42.7893 85.8207 43.3046V43.3046C85.8207 43.8198 86.238 44.2375 86.7527 44.2375H102.458C102.973 44.2375 103.39 43.8198 103.39 43.3046C103.39 42.7893 102.973 42.3716 102.458 42.3716Z" fill="#E6E6E6"/>
<path d="M87.2548 55.8296C87.2561 56.5982 87.1193 57.3608 86.851 58.0809H80.8264C80.5526 58.0804 80.2901 57.9713 80.0964 57.7774C79.9028 57.5836 79.7938 57.3208 79.7933 57.0466V49.4606C80.13 49.4061 80.4704 49.3788 80.8114 49.3789C81.6576 49.3789 82.4955 49.5457 83.2772 49.8698C84.059 50.194 84.7693 50.6691 85.3677 51.2681C85.966 51.8672 86.4406 52.5783 86.7644 53.361C87.0882 54.1436 87.2548 54.9825 87.2548 55.8296Z" fill="#5D93D2"/>
<path opacity="0.2" d="M140.52 30.1323V29.5819H131.304V23.2021H130.756V29.5819H120.193V23.2021H119.646V29.5819H112.67C112.592 29.7646 112.517 29.9474 112.446 30.1323H119.646V40.9222H110.707C110.715 41.1071 110.728 41.2899 110.743 41.4727H119.646V50.08H112.977C113.058 50.265 113.144 50.4477 113.235 50.6283H119.646V57.8639H120.193V50.6283H130.756V57.8639H131.304V50.6283H140.52V50.08H131.304V41.4727H140.52V40.9222H131.304V30.1323H140.52ZM130.756 50.08H120.193V41.4727H130.756V50.08ZM130.756 40.9222H120.193V30.1323H130.756V40.9222Z" fill="black"/>
<path d="M133.1 54.0072C132.982 54.0126 132.866 53.9817 132.766 53.9187C132.667 53.8557 132.589 53.7636 132.544 53.6549C132.498 53.5462 132.488 53.4261 132.513 53.311C132.538 53.1959 132.597 53.0913 132.684 53.0113L132.723 52.8547C132.718 52.8422 132.713 52.8297 132.707 52.8172C132.589 52.5371 132.391 52.2983 132.137 52.1308C131.883 51.9633 131.586 51.8746 131.282 51.8757C130.979 51.8768 130.682 51.9678 130.43 52.1372C130.177 52.3066 129.981 52.5468 129.864 52.8277C129.399 53.949 128.807 55.0721 128.662 56.2576C128.597 56.7816 128.624 57.3128 128.742 57.8276C127.649 55.4424 127.082 52.8501 127.079 50.2263C127.078 49.5678 127.115 48.9099 127.188 48.2556C127.249 47.7192 127.332 47.1866 127.44 46.6578C128.025 43.7887 129.282 41.0996 131.107 38.8112C131.99 38.3287 132.705 37.5867 133.154 36.6852C133.316 36.3611 133.431 36.0152 133.495 35.6582C133.396 35.6712 133.294 35.6794 133.195 35.686C133.164 35.6876 133.131 35.6892 133.1 35.6909L133.088 35.6914C132.979 35.6963 132.87 35.6694 132.775 35.614C132.681 35.5586 132.604 35.4769 132.555 35.3789C132.506 35.2809 132.486 35.1707 132.497 35.0616C132.509 34.9525 132.552 34.8491 132.621 34.7639C132.664 34.7109 132.707 34.6579 132.75 34.6049C132.816 34.5232 132.883 34.443 132.948 34.3613C132.955 34.3535 132.963 34.3453 132.969 34.3367C133.044 34.2435 133.119 34.1519 133.195 34.0587C133.057 33.8456 132.873 33.667 132.656 33.537C131.902 33.0955 130.864 33.4013 130.32 34.0833C129.774 34.7652 129.671 35.7219 129.861 36.574C130.047 37.299 130.355 37.9869 130.772 38.6084C130.731 38.6607 130.689 38.7114 130.648 38.7638C129.901 39.7248 129.251 40.7568 128.705 41.8449C128.838 40.6259 128.68 39.3928 128.243 38.247C127.801 37.1791 126.972 36.2798 126.243 35.3567C125.366 34.2478 123.568 34.7318 123.414 36.1374C123.413 36.151 123.411 36.1646 123.41 36.1782C123.518 36.2394 123.624 36.3044 123.728 36.3731C123.858 36.4604 123.959 36.585 124.018 36.7307C124.076 36.8765 124.09 37.0365 124.056 37.1898C124.022 37.3431 123.942 37.4826 123.828 37.59C123.713 37.6973 123.569 37.7676 123.414 37.7915L123.398 37.794C123.437 38.1851 123.505 38.5727 123.602 38.9535C123.884 40.0164 124.383 41.0096 125.066 41.8708C125.749 42.7319 126.603 43.4424 127.574 43.9578C127.637 43.9905 127.699 44.0232 127.763 44.0543C127.215 45.6091 126.871 47.2286 126.74 48.8721C126.666 49.8418 126.671 50.8158 126.754 51.7848L126.749 51.7504C126.54 50.673 125.965 49.7008 125.123 48.9981C123.872 47.9694 122.105 47.5906 120.756 46.7637C120.612 46.6716 120.446 46.6224 120.275 46.622C120.105 46.6215 119.938 46.6699 119.794 46.7614C119.65 46.8529 119.535 46.9836 119.463 47.1383C119.391 47.2929 119.365 47.4649 119.387 47.634C119.389 47.6461 119.391 47.6581 119.393 47.6701C119.594 47.7521 119.79 47.8466 119.979 47.953C120.088 48.0143 120.194 48.0793 120.298 48.148C120.428 48.2352 120.529 48.3599 120.587 48.5056C120.646 48.6513 120.659 48.8113 120.625 48.9646C120.591 49.118 120.512 49.2575 120.397 49.3648C120.283 49.4722 120.139 49.5424 119.984 49.5664L119.968 49.5688C119.956 49.5704 119.947 49.5721 119.935 49.5737C120.279 50.3953 120.761 51.1516 121.361 51.8093C122.102 52.6055 122.998 53.2418 123.994 53.679C124.989 54.1163 126.063 54.3455 127.15 54.3524H127.152C127.447 55.6361 127.875 56.8858 128.428 58.0811H132.986C133.002 58.0304 133.017 57.978 133.031 57.9273C132.609 57.9539 132.186 57.9286 131.77 57.8521C132.108 57.4367 132.446 57.018 132.785 56.6027C132.792 56.5949 132.799 56.5867 132.806 56.5781C132.977 56.3655 133.151 56.1546 133.322 55.942L133.322 55.9417C133.331 55.29 133.257 54.6399 133.1 54.0073L133.1 54.0072ZM127.881 43.7288L127.883 43.7256L127.881 43.7321V43.7288ZM126.871 52.8396L126.832 52.7513C126.834 52.6875 126.834 52.6238 126.832 52.5583C126.832 52.5403 126.829 52.5224 126.829 52.5044C126.843 52.6172 126.856 52.7301 126.873 52.8429L126.871 52.8396Z" fill="#2F2E41"/>
</g>
<defs>
<clipPath id="clip0_145_40">
<rect width="174" height="128" fill="white"/>
</clipPath>
</defs>
</svg>
