<svg width="203" height="128" viewBox="0 0 203 128" fill="none" xmlns="http://www.w3.org/2000/svg">
<g clip-path="url(#clip0_145_3)">
<path d="M169.53 10.021H0.188545C0.427726 8.66611 0.894835 7.38433 1.54768 6.22341C3.63283 2.51297 7.60895 0 12.1648 0H157.554C162.107 0 166.085 2.51297 168.168 6.22341C168.821 7.38432 169.291 8.66611 169.53 10.021Z" fill="#F2F2F2"/>
<path d="M202.473 127.532C202.473 127.718 202.324 127.867 202.138 127.867H132.551C132.366 127.867 132.217 127.718 132.217 127.532C132.217 127.442 132.25 127.363 132.307 127.304H157.554C158.091 127.304 158.617 127.268 159.135 127.198H202.138C202.324 127.198 202.473 127.346 202.473 127.532V127.532Z" fill="#3F3D56"/>
<path d="M134.947 59.3499H34.7697C33.8387 59.3499 33.0813 58.5934 33.0813 57.6634C33.0813 56.7333 33.8387 55.9768 34.7697 55.9768H134.947C135.878 55.9768 136.635 56.7333 136.635 57.6634C136.635 58.5934 135.878 59.3499 134.947 59.3499Z" fill="#E6E6E6"/>
<path d="M169.53 10.021C169.291 8.66611 168.821 7.38433 168.168 6.22341C166.085 2.51297 162.107 0 157.554 0H12.1648C7.60895 0 3.63283 2.51297 1.54768 6.22341C0.894836 7.38432 0.427727 8.66611 0.188546 10.021C0.0647323 10.7125 0 11.4236 0 12.1517V115.715C0 122.416 5.45627 127.867 12.1648 127.867H157.554C158.944 127.867 160.283 127.63 161.53 127.198C166.291 125.55 169.718 121.025 169.718 115.715V12.1517C169.718 11.4264 169.654 10.7125 169.53 10.021ZM169.155 115.715C169.155 121.578 164.794 126.427 159.135 127.198C158.617 127.268 158.091 127.304 157.554 127.304H29.4453C13.4929 127.304 0.562792 114.385 0.562792 98.4501V12.1517C0.562792 11.4236 0.630324 10.7125 0.759772 10.021C1.01303 8.65485 1.50548 7.37589 2.19488 6.22341C4.21812 2.83343 7.92693 0.562187 12.1648 0.562187H157.554C161.791 0.562187 165.5 2.83343 167.523 6.22341C168.213 7.37589 168.705 8.65485 168.958 10.021C169.088 10.7125 169.155 11.4236 169.155 12.1517V115.715Z" fill="#3F3D56"/>
<path d="M162.063 60.7386L161.111 57.2509L165.396 55.6655L165.872 58.8362L162.063 60.7386Z" fill="#FFB6B6"/>
<path opacity="0.1" d="M162.063 60.7385L161.111 57.2508L163.634 56.1875L162.85 60.2992L162.063 60.7385Z" fill="black"/>
<path d="M149.52 90.6294C148.701 90.1429 148.658 88.7071 149.423 87.4224C149.758 86.86 150.192 86.4198 150.644 86.1434L151.093 85.41L156.778 75.2299C156.778 75.2299 159.266 65.6288 160.279 64.4679C161.292 63.307 162.757 63.5805 162.757 63.5805L164.056 64.7333L159.419 78.3319L153.697 86.3819L152.93 87.5022C152.902 88.0302 152.722 88.6215 152.387 89.1839C151.622 90.4686 150.338 91.1158 149.52 90.6294V90.6294Z" fill="#FFB6B6"/>
<path d="M161.829 59.7423C161.829 59.7423 163.637 59.6724 164.778 61.0755C165.919 62.4785 159.942 78.2921 159.942 78.2921L155.074 78.12L161.829 59.7423V59.7423Z" fill="#5D93D2"/>
<path d="M162.301 57.8058C164.755 57.8058 166.745 55.8184 166.745 53.3669C166.745 50.9153 164.755 48.928 162.301 48.928C159.847 48.928 157.858 50.9153 157.858 53.3669C157.858 55.8184 159.847 57.8058 162.301 57.8058Z" fill="#FFB6B6"/>
<path d="M151.906 117.81L148.891 125.261L147.145 123.517L146.51 120.188L149.05 117.017L151.906 117.81Z" fill="#FFB6B6"/>
<path d="M180.155 115.115L183.171 118.603L181.742 121.456L178.568 120.981L176.981 116.542L180.155 115.115Z" fill="#FFB6B6"/>
<path d="M160.079 73.5002L159.683 79.9208L169.522 78.1769L168.887 74.2136L160.079 73.5002Z" fill="#FFB6B6"/>
<path d="M159.603 80.0002L169.522 76.7502C169.522 76.7502 173.172 84.0427 169.205 88.6402C165.237 93.2376 152.065 119.395 152.065 119.395L148.097 117.493L153.811 100.847L160.159 85.4695L159.603 80.0002V80.0002Z" fill="#2F2E41"/>
<path d="M169.205 85.9451L173.014 102.591L180.949 115.432L176.823 117.81L165.713 102.591L162.063 90.8596L169.205 85.9451Z" fill="#2F2E41"/>
<path d="M145.082 119.554H142.333C142.333 119.554 139.126 118.286 138.375 119.554C137.623 120.822 141.728 124.419 141.728 124.419C141.728 124.419 147.463 127.639 148.256 127.481C149.05 127.322 149.367 125.42 149.367 125.42L150.319 123.2L148.891 123.676C148.891 123.676 146.986 122.566 147.463 120.664L145.082 119.554V119.554Z" fill="#2F2E41"/>
<path d="M182.536 119.078V117.493L184.381 119.078C184.381 119.078 187.456 120.188 185.075 122.566C182.695 124.944 179.679 127.48 179.679 127.48C179.679 127.48 174.918 128.749 174.601 127.322C174.283 125.895 174.601 125.318 174.601 125.318L176.346 124.468L177.933 120.346L180.473 120.664L182.536 119.078Z" fill="#2F2E41"/>
<path d="M163.65 54.2387L162.222 54.0802L159.603 51.4644C159.603 51.4644 157.223 52.7326 157.223 51.7814C157.223 47.3425 159.921 47.5011 162.143 47.184C164.364 46.8669 164.126 46.7877 164.84 47.9767C165.167 48.5204 166.348 48.8486 166.348 48.8486C166.348 48.8486 168.57 45.8365 169.681 49.4827C170.792 53.129 169.364 64.3847 170.474 65.3359C171.585 66.2871 165.913 67.2369 166.527 63.5121C167.142 59.7873 168.253 54.0802 167.618 52.8119C166.983 51.5437 166.824 51.8607 166.824 51.8607C167.611 51.5399 168.125 57.1915 165.159 57.4682L165.079 54.7143C165.079 54.7143 164.602 53.2875 163.65 54.2387V54.2387Z" fill="#2F2E41"/>
<path d="M161.666 59.708L166.428 57.8057L172.776 76.8295L159.714 76.3542L158.538 70.6762C158.538 70.6762 157.39 67.7211 158.342 65.9772C159.295 64.2333 161.666 59.708 161.666 59.708V59.708Z" fill="#5D93D2"/>
<path d="M174.056 91.5754C173.107 91.6568 172.234 90.5154 172.106 89.0259C172.05 88.3739 172.146 87.7633 172.351 87.276L172.288 86.4184L170.965 74.8367C170.965 74.8367 168.504 65.363 168.649 63.8298C168.795 62.2967 169.025 61.8896 169.025 61.8896L170.753 62.0696L174.922 75.8188L174.971 85.6917L175.001 87.0486C175.287 87.4938 175.486 88.0791 175.542 88.7311C175.67 90.2205 175.004 91.494 174.056 91.5754H174.056Z" fill="#FFB6B6"/>
<path d="M166.031 59.3117C166.031 59.3117 167.459 58.202 169.205 58.6776C170.951 59.1532 175.324 75.482 175.324 75.482L171.268 78.177L166.031 59.3117V59.3117Z" fill="#5D93D2"/>
<path d="M83.351 86.7566H64.3129C63.1511 86.7566 62.2057 85.8123 62.2057 84.6517V82.7497C62.2057 81.589 63.1511 80.645 64.3129 80.645H83.351C84.5128 80.645 85.4581 81.589 85.4581 82.7497V84.6517C85.4581 85.8123 84.5128 86.7566 83.351 86.7566Z" fill="#5D93D2"/>
<path d="M156.514 24.5989H137.476C136.314 24.5989 135.369 23.6546 135.369 22.494V20.5919C135.369 19.4313 136.314 18.4873 137.476 18.4873H156.514C157.676 18.4873 158.621 19.4313 158.621 20.5919V22.494C158.621 23.6546 157.676 24.5989 156.514 24.5989Z" fill="#5D93D2"/>
<path d="M111.594 86.8971H92.556C91.3165 86.8971 90.3081 85.8896 90.3081 84.6516V82.7496C90.3081 81.5116 91.3165 80.5044 92.556 80.5044H111.594C112.833 80.5044 113.842 81.5116 113.842 82.7496V84.6516C113.842 85.8896 112.833 86.8971 111.594 86.8971ZM92.556 81.0666C91.6269 81.0666 90.8709 81.8215 90.8709 82.7496V84.6516C90.8709 85.5797 91.6269 86.3349 92.556 86.3349H111.594C112.523 86.3349 113.279 85.5797 113.279 84.6516V82.7496C113.279 81.8215 112.523 81.0666 111.594 81.0666H92.556Z" fill="#5D93D2"/>
<path d="M134.947 50.6361H34.7697C33.8387 50.6361 33.0813 49.8795 33.0813 48.9495C33.0813 48.0195 33.8387 47.2629 34.7697 47.2629H134.947C135.878 47.2629 136.635 48.0195 136.635 48.9495C136.635 49.8795 135.878 50.6361 134.947 50.6361Z" fill="#E6E6E6"/>
<path d="M28.39 23.2296H15.7272C14.7962 23.2296 14.0388 22.473 14.0388 21.543C14.0388 20.613 14.7962 19.8564 15.7272 19.8564H28.39C29.3211 19.8564 30.0784 20.613 30.0784 21.543C30.0784 22.473 29.3211 23.2296 28.39 23.2296V23.2296Z" fill="#E6E6E6"/>
<path d="M104.085 23.2296H91.4227C90.4917 23.2296 89.7343 22.473 89.7343 21.543C89.7343 20.613 90.4917 19.8564 91.4227 19.8564H104.085C105.017 19.8564 105.774 20.613 105.774 21.543C105.774 22.473 105.017 23.2296 104.085 23.2296Z" fill="#E6E6E6"/>
<path d="M128.004 23.2296H115.341C114.41 23.2296 113.653 22.473 113.653 21.543C113.653 20.613 114.41 19.8564 115.341 19.8564H128.004C128.935 19.8564 129.693 20.613 129.693 21.543C129.693 22.473 128.935 23.2296 128.004 23.2296Z" fill="#E6E6E6"/>
<path d="M112.716 68.064H57C56.0689 68.064 55.3116 67.3075 55.3116 66.3775C55.3116 65.4475 56.0689 64.6909 57 64.6909H112.716C113.647 64.6909 114.405 65.4475 114.405 66.3775C114.405 67.3075 113.647 68.064 112.716 68.064Z" fill="#E6E6E6"/>
<path d="M115.145 104.959H54.5731C54.0101 104.959 53.5522 104.502 53.5522 103.939C53.5522 103.377 54.0101 102.919 54.5731 102.919H115.145C115.708 102.919 116.166 103.377 116.166 103.939C116.166 104.502 115.708 104.959 115.145 104.959Z" fill="#E6E6E6"/>
<path d="M101.704 110.228H68.0146C67.4517 110.228 66.9938 109.77 66.9938 109.208C66.9938 108.646 67.4517 108.188 68.0146 108.188H101.704C102.267 108.188 102.724 108.646 102.724 109.208C102.724 109.77 102.267 110.228 101.704 110.228Z" fill="#E6E6E6"/>
<path d="M115.708 6.01417H55.1359C54.5729 6.01417 54.115 5.55673 54.115 4.99439C54.115 4.43205 54.5729 3.97461 55.1359 3.97461H115.708C116.271 3.97461 116.729 4.43205 116.729 4.99439C116.729 5.55673 116.271 6.01417 115.708 6.01417Z" fill="white"/>
<path d="M123.857 2.8003L123.473 3.21205L125.203 4.81792H119.951C119.796 4.81792 119.67 4.94378 119.67 5.09902C119.67 5.25425 119.796 5.38011 119.951 5.38011H125.204L123.473 6.9865L123.857 7.39825L126.332 5.09957L123.857 2.80029V2.8003Z" fill="#5D93D2"/>
</g>
<defs>
<clipPath id="clip0_145_3">
<rect width="202.473" height="128" fill="white"/>
</clipPath>
</defs>
</svg>
