<svg width="176" height="128" viewBox="0 0 176 128" fill="none" xmlns="http://www.w3.org/2000/svg">
<g clip-path="url(#clip0_147_113)">
<path d="M101.998 22.565C105.28 22.565 107.94 19.8911 107.94 16.5927C107.94 13.2943 105.28 10.6204 101.998 10.6204C98.7161 10.6204 96.0557 13.2943 96.0557 16.5927C96.0557 19.8911 98.7161 22.565 101.998 22.565Z" fill="#F2F2F2"/>
<path d="M148.093 111.201C156.925 104.439 161.144 93.0772 158.503 82.2386C158.437 81.9693 158.368 81.7006 158.295 81.4325C156.544 74.9989 152.213 68.8842 145.899 66.8285C140.598 65.1024 134.812 66.4297 129.282 65.7433C118.426 64.3959 110.009 55.5674 104.087 46.324C98.165 37.0805 93.6137 26.7337 85.7445 19.0973C72.7734 6.50985 51.6143 3.79977 35.5321 11.9932C19.4498 20.1867 9.20558 38.3647 9.64247 56.4812C10.0794 74.5978 20.7801 91.9185 36.3202 101.108C42.029 104.484 48.6318 106.876 55.2029 106.039C60.9046 105.313 66.0852 102.234 71.76 101.319C80.6822 99.8822 89.5475 103.937 97.2645 108.661C104.981 113.386 112.435 118.986 121.205 121.177C129.72 123.303 140.269 117.19 148.093 111.201Z" fill="#F2F2F2"/>
<path d="M135.403 12.3737C135.209 12.244 135.014 12.121 134.82 11.9957C129.223 8.39807 123.224 5.47538 116.947 3.28803L115.492 23.468H106.265V0.342223C105.684 0.221438 105.099 0.107364 104.514 0V23.468H93.5487C87.5124 23.468 81.7234 21.058 77.4551 16.768C73.1868 12.4781 70.7889 6.65966 70.7889 0.592766V0.592745C70.2014 0.72024 69.6183 0.856683 69.0352 1.00207V23.468H60.1044L58.718 4.22523C52.2674 6.71167 46.1435 9.98147 40.4825 13.9618C40.3846 14.0289 40.2867 14.0983 40.191 14.1654C39.6992 14.5121 39.214 14.8655 38.7311 15.2234V92.2102H65.0516L64.5865 85.7348L62.0272 50.1816H113.567L111.007 85.7348L110.542 92.2102H136.571V13.1521C136.184 12.8882 135.795 12.6287 135.403 12.3737ZM69.0352 44.3101H61.6044L60.2313 25.2306H69.0352V44.3101ZM104.514 44.3101H92.0332V43.9321C92.0332 43.7504 91.9976 43.5704 91.9283 43.4026C91.859 43.2347 91.7575 43.0822 91.6296 42.9538C91.5016 42.8255 91.3498 42.7237 91.1826 42.6543C91.0155 42.585 90.8364 42.5495 90.6556 42.5498H85.2299C85.0493 42.5497 84.8704 42.5854 84.7035 42.6549C84.5366 42.7243 84.385 42.8261 84.2573 42.9545C84.1296 43.0829 84.0282 43.2353 83.9592 43.403C83.8901 43.5708 83.8545 43.7505 83.8546 43.9321V44.3101H70.7889V25.2306H104.514V44.3101ZM106.265 44.3101V25.2306H115.365L113.992 44.3101H106.265Z" fill="#3F3D56"/>
<path d="M0 97.1401C1.93332 99.4425 4.02442 101.606 6.25801 103.616L168.846 103.839C171.08 101.83 173.171 99.6662 175.104 97.3638L0 97.1401Z" fill="#3F3D56"/>
<path d="M110.256 76.4057V95.5755C110.256 95.8198 110.353 96.0541 110.525 96.2268C110.697 96.3996 110.93 96.4967 111.173 96.4969H139.437C139.68 96.4967 139.913 96.3996 140.085 96.2268C140.257 96.0541 140.354 95.8198 140.354 95.5755V76.4057C140.353 76.1616 140.257 75.9277 140.085 75.7552C139.913 75.5827 139.68 75.4857 139.437 75.4854H111.173C110.93 75.4857 110.697 75.5827 110.525 75.7552C110.354 75.9277 110.257 76.1616 110.256 76.4057V76.4057Z" fill="#3F3D56"/>
<path d="M110.919 76.6441V95.3389C110.919 95.4695 110.971 95.5946 111.063 95.6869C111.155 95.7792 111.279 95.8311 111.409 95.8313H139.202C139.332 95.8311 139.456 95.7792 139.548 95.6869C139.64 95.5946 139.692 95.4695 139.692 95.3389V76.6441C139.692 76.5134 139.64 76.388 139.548 76.2955C139.457 76.203 139.332 76.1509 139.202 76.1506H111.409C111.279 76.1509 111.154 76.203 111.063 76.2955C110.971 76.388 110.919 76.5134 110.919 76.6441V76.6441Z" fill="#5D93D2"/>
<path d="M109.665 99.3141C109.717 99.3794 109.783 99.432 109.858 99.468C109.932 99.504 110.014 99.5225 110.098 99.5221H140.362C140.445 99.522 140.527 99.5033 140.601 99.4675C140.676 99.4317 140.742 99.3796 140.794 99.315C140.846 99.2504 140.883 99.1749 140.903 99.094C140.922 99.0132 140.923 98.929 140.906 98.8476L140.437 96.6047C140.417 96.5133 140.375 96.4281 140.315 96.3571C140.254 96.2861 140.177 96.2314 140.09 96.1981C140.027 96.1733 139.96 96.1606 139.892 96.1606H110.565C110.498 96.1606 110.431 96.1733 110.368 96.1981C110.281 96.2314 110.204 96.2861 110.143 96.3571C110.082 96.4281 110.041 96.5133 110.021 96.6047L109.551 98.8476C109.535 98.9289 109.536 99.013 109.556 99.0937C109.575 99.1744 109.613 99.2497 109.665 99.3141V99.3141Z" fill="#2F2E41"/>
<path d="M138.854 97.1267H139.569C139.629 97.1267 139.677 97.0778 139.677 97.0175V96.6738C139.677 96.6135 139.629 96.5646 139.569 96.5646H138.854C138.794 96.5646 138.745 96.6135 138.745 96.6738V97.0175C138.745 97.0778 138.794 97.1267 138.854 97.1267Z" fill="#3F3D56"/>
<path d="M136.99 97.1267H137.704C137.764 97.1267 137.813 97.0778 137.813 97.0175V96.6738C137.813 96.6135 137.764 96.5646 137.704 96.5646H136.99C136.93 96.5646 136.881 96.6135 136.881 96.6738V97.0175C136.881 97.0778 136.93 97.1267 136.99 97.1267Z" fill="#3F3D56"/>
<path d="M135.125 97.1267H135.84C135.9 97.1267 135.949 97.0778 135.949 97.0175V96.6738C135.949 96.6135 135.9 96.5646 135.84 96.5646H135.125C135.065 96.5646 135.017 96.6135 135.017 96.6738V97.0175C135.017 97.0778 135.065 97.1267 135.125 97.1267Z" fill="#3F3D56"/>
<path d="M133.261 97.1267H133.976C134.036 97.1267 134.084 97.0778 134.084 97.0175V96.6738C134.084 96.6135 134.036 96.5646 133.976 96.5646H133.261C133.201 96.5646 133.152 96.6135 133.152 96.6738V97.0175C133.152 97.0778 133.201 97.1267 133.261 97.1267Z" fill="#3F3D56"/>
<path d="M131.397 97.1267H132.112C132.172 97.1267 132.22 97.0778 132.22 97.0175V96.6738C132.22 96.6135 132.172 96.5646 132.112 96.5646H131.397C131.337 96.5646 131.288 96.6135 131.288 96.6738V97.0175C131.288 97.0778 131.337 97.1267 131.397 97.1267Z" fill="#3F3D56"/>
<path d="M129.533 97.1267H130.247C130.307 97.1267 130.356 97.0778 130.356 97.0175V96.6738C130.356 96.6135 130.307 96.5646 130.247 96.5646H129.533C129.473 96.5646 129.424 96.6135 129.424 96.6738V97.0175C129.424 97.0778 129.473 97.1267 129.533 97.1267Z" fill="#3F3D56"/>
<path d="M127.668 97.1267H128.383C128.443 97.1267 128.492 97.0778 128.492 97.0175V96.6738C128.492 96.6135 128.443 96.5646 128.383 96.5646H127.668C127.608 96.5646 127.56 96.6135 127.56 96.6738V97.0175C127.56 97.0778 127.608 97.1267 127.668 97.1267Z" fill="#3F3D56"/>
<path d="M125.804 97.1267H126.519C126.579 97.1267 126.627 97.0778 126.627 97.0175V96.6738C126.627 96.6135 126.579 96.5646 126.519 96.5646H125.804C125.744 96.5646 125.695 96.6135 125.695 96.6738V97.0175C125.695 97.0778 125.744 97.1267 125.804 97.1267Z" fill="#3F3D56"/>
<path d="M123.94 97.1267H124.655C124.715 97.1267 124.763 97.0778 124.763 97.0175V96.6738C124.763 96.6135 124.715 96.5646 124.655 96.5646H123.94C123.88 96.5646 123.831 96.6135 123.831 96.6738V97.0175C123.831 97.0778 123.88 97.1267 123.94 97.1267Z" fill="#3F3D56"/>
<path d="M122.075 97.1267H122.79C122.85 97.1267 122.899 97.0778 122.899 97.0175V96.6738C122.899 96.6135 122.85 96.5646 122.79 96.5646H122.075C122.015 96.5646 121.967 96.6135 121.967 96.6738V97.0175C121.967 97.0778 122.015 97.1267 122.075 97.1267Z" fill="#3F3D56"/>
<path d="M120.211 97.1267H120.926C120.986 97.1267 121.035 97.0778 121.035 97.0175V96.6738C121.035 96.6135 120.986 96.5646 120.926 96.5646H120.211C120.151 96.5646 120.103 96.6135 120.103 96.6738V97.0175C120.103 97.0778 120.151 97.1267 120.211 97.1267Z" fill="#3F3D56"/>
<path d="M118.347 97.1267H119.062C119.122 97.1267 119.17 97.0778 119.17 97.0175V96.6738C119.17 96.6135 119.122 96.5646 119.062 96.5646H118.347C118.287 96.5646 118.238 96.6135 118.238 96.6738V97.0175C118.238 97.0778 118.287 97.1267 118.347 97.1267Z" fill="#3F3D56"/>
<path d="M116.483 97.1267H117.198C117.258 97.1267 117.306 97.0778 117.306 97.0175V96.6738C117.306 96.6135 117.258 96.5646 117.198 96.5646H116.483C116.423 96.5646 116.374 96.6135 116.374 96.6738V97.0175C116.374 97.0778 116.423 97.1267 116.483 97.1267Z" fill="#3F3D56"/>
<path d="M114.618 97.1267H115.333C115.393 97.1267 115.442 97.0778 115.442 97.0175V96.6738C115.442 96.6135 115.393 96.5646 115.333 96.5646H114.618C114.558 96.5646 114.51 96.6135 114.51 96.6738V97.0175C114.51 97.0778 114.558 97.1267 114.618 97.1267Z" fill="#3F3D56"/>
<path d="M112.754 97.1267H113.469C113.529 97.1267 113.578 97.0778 113.578 97.0175V96.6738C113.578 96.6135 113.529 96.5646 113.469 96.5646H112.754C112.694 96.5646 112.646 96.6135 112.646 96.6738V97.0175C112.646 97.0778 112.694 97.1267 112.754 97.1267Z" fill="#3F3D56"/>
<path d="M110.89 97.1267H111.605C111.665 97.1267 111.713 97.0778 111.713 97.0175V96.6738C111.713 96.6135 111.665 96.5646 111.605 96.5646H110.89C110.83 96.5646 110.781 96.6135 110.781 96.6738V97.0175C110.781 97.0778 110.83 97.1267 110.89 97.1267Z" fill="#3F3D56"/>
<path d="M138.876 98.0635H139.591C139.651 98.0635 139.699 98.0146 139.699 97.9543V97.6106C139.699 97.5502 139.651 97.5014 139.591 97.5014H138.876C138.816 97.5014 138.767 97.5502 138.767 97.6106V97.9543C138.767 98.0146 138.816 98.0635 138.876 98.0635Z" fill="#3F3D56"/>
<path d="M137.012 98.0635H137.726C137.786 98.0635 137.835 98.0146 137.835 97.9543V97.6106C137.835 97.5502 137.786 97.5014 137.726 97.5014H137.012C136.952 97.5014 136.903 97.5502 136.903 97.6106V97.9543C136.903 98.0146 136.952 98.0635 137.012 98.0635Z" fill="#3F3D56"/>
<path d="M135.147 98.0635H135.862C135.922 98.0635 135.971 98.0146 135.971 97.9543V97.6106C135.971 97.5502 135.922 97.5014 135.862 97.5014H135.147C135.087 97.5014 135.039 97.5502 135.039 97.6106V97.9543C135.039 98.0146 135.087 98.0635 135.147 98.0635Z" fill="#3F3D56"/>
<path d="M133.283 98.0635H133.998C134.058 98.0635 134.107 98.0146 134.107 97.9543V97.6106C134.107 97.5502 134.058 97.5014 133.998 97.5014H133.283C133.223 97.5014 133.174 97.5502 133.174 97.6106V97.9543C133.174 98.0146 133.223 98.0635 133.283 98.0635Z" fill="#3F3D56"/>
<path d="M131.419 98.0635H132.134C132.194 98.0635 132.242 98.0146 132.242 97.9543V97.6106C132.242 97.5502 132.194 97.5014 132.134 97.5014H131.419C131.359 97.5014 131.31 97.5502 131.31 97.6106V97.9543C131.31 98.0146 131.359 98.0635 131.419 98.0635Z" fill="#3F3D56"/>
<path d="M129.555 98.0635H130.269C130.329 98.0635 130.378 98.0146 130.378 97.9543V97.6106C130.378 97.5502 130.329 97.5014 130.269 97.5014H129.555C129.495 97.5014 129.446 97.5502 129.446 97.6106V97.9543C129.446 98.0146 129.495 98.0635 129.555 98.0635Z" fill="#3F3D56"/>
<path d="M127.69 98.0635H128.405C128.465 98.0635 128.514 98.0146 128.514 97.9543V97.6106C128.514 97.5502 128.465 97.5014 128.405 97.5014H127.69C127.63 97.5014 127.582 97.5502 127.582 97.6106V97.9543C127.582 98.0146 127.63 98.0635 127.69 98.0635Z" fill="#3F3D56"/>
<path d="M125.826 98.0635H126.541C126.601 98.0635 126.65 98.0146 126.65 97.9543V97.6106C126.65 97.5502 126.601 97.5014 126.541 97.5014H125.826C125.766 97.5014 125.717 97.5502 125.717 97.6106V97.9543C125.717 98.0146 125.766 98.0635 125.826 98.0635Z" fill="#3F3D56"/>
<path d="M123.962 98.0635H124.677C124.737 98.0635 124.785 98.0146 124.785 97.9543V97.6106C124.785 97.5502 124.737 97.5014 124.677 97.5014H123.962C123.902 97.5014 123.853 97.5502 123.853 97.6106V97.9543C123.853 98.0146 123.902 98.0635 123.962 98.0635Z" fill="#3F3D56"/>
<path d="M122.098 98.0635H122.812C122.872 98.0635 122.921 98.0146 122.921 97.9543V97.6106C122.921 97.5502 122.872 97.5014 122.812 97.5014H122.098C122.038 97.5014 121.989 97.5502 121.989 97.6106V97.9543C121.989 98.0146 122.038 98.0635 122.098 98.0635Z" fill="#3F3D56"/>
<path d="M120.233 98.0635H120.948C121.008 98.0635 121.057 98.0146 121.057 97.9543V97.6106C121.057 97.5502 121.008 97.5014 120.948 97.5014H120.233C120.173 97.5014 120.125 97.5502 120.125 97.6106V97.9543C120.125 98.0146 120.173 98.0635 120.233 98.0635Z" fill="#3F3D56"/>
<path d="M118.369 98.0635H119.084C119.144 98.0635 119.192 98.0146 119.192 97.9543V97.6106C119.192 97.5502 119.144 97.5014 119.084 97.5014H118.369C118.309 97.5014 118.26 97.5502 118.26 97.6106V97.9543C118.26 98.0146 118.309 98.0635 118.369 98.0635Z" fill="#3F3D56"/>
<path d="M116.505 98.0635H117.219C117.279 98.0635 117.328 98.0146 117.328 97.9543V97.6106C117.328 97.5502 117.279 97.5014 117.219 97.5014H116.505C116.445 97.5014 116.396 97.5502 116.396 97.6106V97.9543C116.396 98.0146 116.445 98.0635 116.505 98.0635Z" fill="#3F3D56"/>
<path d="M114.64 98.0635H115.355C115.415 98.0635 115.464 98.0146 115.464 97.9543V97.6106C115.464 97.5502 115.415 97.5014 115.355 97.5014H114.64C114.58 97.5014 114.532 97.5502 114.532 97.6106V97.9543C114.532 98.0146 114.58 98.0635 114.64 98.0635Z" fill="#3F3D56"/>
<path d="M112.776 98.0635H113.491C113.551 98.0635 113.6 98.0146 113.6 97.9543V97.6106C113.6 97.5502 113.551 97.5014 113.491 97.5014H112.776C112.716 97.5014 112.667 97.5502 112.667 97.6106V97.9543C112.667 98.0146 112.716 98.0635 112.776 98.0635Z" fill="#3F3D56"/>
<path d="M110.912 98.0635H111.627C111.687 98.0635 111.735 98.0146 111.735 97.9543V97.6106C111.735 97.5502 111.687 97.5014 111.627 97.5014H110.912C110.852 97.5014 110.803 97.5502 110.803 97.6106V97.9543C110.803 98.0146 110.852 98.0635 110.912 98.0635Z" fill="#3F3D56"/>
<path d="M123.402 99.1877H130.642C130.702 99.1877 130.751 99.1388 130.751 99.0785V98.7348C130.751 98.6745 130.702 98.6256 130.642 98.6256H123.402C123.342 98.6256 123.294 98.6745 123.294 98.7348V99.0785C123.294 99.1388 123.342 99.1877 123.402 99.1877Z" fill="#3F3D56"/>
<path d="M115.732 80.2407H115.099C114.907 80.2407 114.752 80.3971 114.752 80.5899C114.752 80.7827 114.907 80.9391 115.099 80.9391H115.732C115.924 80.9391 116.08 80.7827 116.08 80.5899C116.08 80.3971 115.924 80.2407 115.732 80.2407Z" fill="white"/>
<path d="M122.97 80.2407H122.337C122.145 80.2407 121.99 80.3971 121.99 80.5899C121.99 80.7827 122.145 80.9391 122.337 80.9391H122.97C123.162 80.9391 123.317 80.7827 123.317 80.5899C123.317 80.3971 123.162 80.2407 122.97 80.2407Z" fill="white"/>
<path d="M125.021 80.2407H124.388C124.196 80.2407 124.041 80.3971 124.041 80.5899C124.041 80.7827 124.196 80.9391 124.388 80.9391H125.021C125.213 80.9391 125.368 80.7827 125.368 80.5899C125.368 80.3971 125.213 80.2407 125.021 80.2407Z" fill="white"/>
<path d="M121.001 80.1824H117.068C116.876 80.1824 116.721 80.3387 116.721 80.5315C116.721 80.7244 116.876 80.8807 117.068 80.8807H121.001C121.193 80.8807 121.349 80.7244 121.349 80.5315C121.349 80.3387 121.193 80.1824 121.001 80.1824Z" fill="white"/>
<path d="M130.652 80.1824H126.719C126.527 80.1824 126.371 80.3387 126.371 80.5315C126.371 80.7244 126.527 80.8807 126.719 80.8807H130.652C130.844 80.8807 130.999 80.7244 130.999 80.5315C130.999 80.3387 130.844 80.1824 130.652 80.1824Z" fill="white"/>
<path d="M117.662 81.8169H117.029C116.838 81.8169 116.682 81.9732 116.682 82.1661C116.682 82.3589 116.838 82.5152 117.029 82.5152H117.662C117.854 82.5152 118.01 82.3589 118.01 82.1661C118.01 81.9732 117.854 81.8169 117.662 81.8169Z" fill="white"/>
<path d="M124.9 81.8169H124.267C124.075 81.8169 123.92 81.9732 123.92 82.1661C123.92 82.3589 124.075 82.5152 124.267 82.5152H124.9C125.092 82.5152 125.247 82.3589 125.247 82.1661C125.247 81.9732 125.092 81.8169 124.9 81.8169Z" fill="white"/>
<path d="M126.951 81.8169H126.318C126.126 81.8169 125.971 81.9732 125.971 82.1661C125.971 82.3589 126.126 82.5152 126.318 82.5152H126.951C127.143 82.5152 127.298 82.3589 127.298 82.1661C127.298 81.9732 127.143 81.8169 126.951 81.8169Z" fill="white"/>
<path d="M122.931 81.7585H118.998C118.806 81.7585 118.651 81.9149 118.651 82.1077C118.651 82.3006 118.806 82.4569 118.998 82.4569H122.931C123.123 82.4569 123.279 82.3006 123.279 82.1077C123.279 81.9149 123.123 81.7585 122.931 81.7585Z" fill="white"/>
<path d="M132.582 81.7585H128.649C128.457 81.7585 128.301 81.9149 128.301 82.1077C128.301 82.3006 128.457 82.4569 128.649 82.4569H132.582C132.774 82.4569 132.929 82.3006 132.929 82.1077C132.929 81.9149 132.774 81.7585 132.582 81.7585Z" fill="white"/>
<path d="M119.592 83.3931H118.959C118.768 83.3931 118.612 83.5494 118.612 83.7422C118.612 83.9351 118.768 84.0914 118.959 84.0914H119.592C119.784 84.0914 119.94 83.9351 119.94 83.7422C119.94 83.5494 119.784 83.3931 119.592 83.3931Z" fill="white"/>
<path d="M126.83 83.3931H126.197C126.006 83.3931 125.85 83.5494 125.85 83.7422C125.85 83.9351 126.006 84.0914 126.197 84.0914H126.83C127.022 84.0914 127.178 83.9351 127.178 83.7422C127.178 83.5494 127.022 83.3931 126.83 83.3931Z" fill="white"/>
<path d="M128.881 83.3931H128.248C128.056 83.3931 127.901 83.5494 127.901 83.7422C127.901 83.9351 128.056 84.0914 128.248 84.0914H128.881C129.073 84.0914 129.228 83.9351 129.228 83.7422C129.228 83.5494 129.073 83.3931 128.881 83.3931Z" fill="white"/>
<path d="M124.862 83.3347H120.928C120.736 83.3347 120.581 83.4911 120.581 83.6839C120.581 83.8767 120.736 84.0331 120.928 84.0331H124.862C125.053 84.0331 125.209 83.8767 125.209 83.6839C125.209 83.4911 125.053 83.3347 124.862 83.3347Z" fill="white"/>
<path d="M134.512 83.3347H130.579C130.387 83.3347 130.231 83.4911 130.231 83.6839C130.231 83.8767 130.387 84.0331 130.579 84.0331H134.512C134.704 84.0331 134.859 83.8767 134.859 83.6839C134.859 83.4911 134.704 83.3347 134.512 83.3347Z" fill="white"/>
<path d="M121.523 84.9692H120.89C120.698 84.9692 120.542 85.1256 120.542 85.3184C120.542 85.5113 120.698 85.6676 120.89 85.6676H121.523C121.714 85.6676 121.87 85.5113 121.87 85.3184C121.87 85.1256 121.714 84.9692 121.523 84.9692Z" fill="white"/>
<path d="M128.76 84.9692H128.127C127.936 84.9692 127.78 85.1256 127.78 85.3184C127.78 85.5113 127.936 85.6676 128.127 85.6676H128.76C128.952 85.6676 129.108 85.5113 129.108 85.3184C129.108 85.1256 128.952 84.9692 128.76 84.9692Z" fill="white"/>
<path d="M130.811 84.9692H130.178C129.986 84.9692 129.831 85.1256 129.831 85.3184C129.831 85.5113 129.986 85.6676 130.178 85.6676H130.811C131.003 85.6676 131.158 85.5113 131.158 85.3184C131.158 85.1256 131.003 84.9692 130.811 84.9692Z" fill="white"/>
<path d="M126.792 84.9109H122.858C122.666 84.9109 122.511 85.0672 122.511 85.2601C122.511 85.4529 122.666 85.6092 122.858 85.6092H126.792C126.983 85.6092 127.139 85.4529 127.139 85.2601C127.139 85.0672 126.983 84.9109 126.792 84.9109Z" fill="white"/>
<path d="M122.97 91.2366H122.337C122.145 91.2366 121.99 91.3929 121.99 91.5857C121.99 91.7786 122.145 91.9349 122.337 91.9349H122.97C123.162 91.9349 123.317 91.7786 123.317 91.5857C123.317 91.3929 123.162 91.2366 122.97 91.2366Z" fill="white"/>
<path d="M125.021 91.2366H124.388C124.196 91.2366 124.041 91.3929 124.041 91.5857C124.041 91.7786 124.196 91.9349 124.388 91.9349H125.021C125.213 91.9349 125.368 91.7786 125.368 91.5857C125.368 91.3929 125.213 91.2366 125.021 91.2366Z" fill="white"/>
<path d="M130.652 91.2949H126.719C126.527 91.2949 126.371 91.4513 126.371 91.6441C126.371 91.8369 126.527 91.9933 126.719 91.9933H130.652C130.844 91.9933 130.999 91.8369 130.999 91.6441C130.999 91.4513 130.844 91.2949 130.652 91.2949Z" fill="white"/>
<path d="M115.732 91.2366H115.099C114.907 91.2366 114.752 91.3929 114.752 91.5857C114.752 91.7786 114.907 91.9349 115.099 91.9349H115.732C115.924 91.9349 116.08 91.7786 116.08 91.5857C116.08 91.3929 115.924 91.2366 115.732 91.2366Z" fill="white"/>
<path d="M121.001 91.2949H117.068C116.876 91.2949 116.721 91.4513 116.721 91.6441C116.721 91.8369 116.876 91.9933 117.068 91.9933H121.001C121.193 91.9933 121.349 91.8369 121.349 91.6441C121.349 91.4513 121.193 91.2949 121.001 91.2949Z" fill="white"/>
<path d="M117.662 89.6604H117.029C116.838 89.6604 116.682 89.8167 116.682 90.0096C116.682 90.2024 116.838 90.3588 117.029 90.3588H117.662C117.854 90.3588 118.01 90.2024 118.01 90.0096C118.01 89.8167 117.854 89.6604 117.662 89.6604Z" fill="white"/>
<path d="M124.9 89.6604H124.267C124.075 89.6604 123.92 89.8167 123.92 90.0096C123.92 90.2024 124.075 90.3588 124.267 90.3588H124.9C125.092 90.3588 125.247 90.2024 125.247 90.0096C125.247 89.8167 125.092 89.6604 124.9 89.6604Z" fill="white"/>
<path d="M126.951 89.6604H126.318C126.126 89.6604 125.971 89.8167 125.971 90.0096C125.971 90.2024 126.126 90.3588 126.318 90.3588H126.951C127.143 90.3588 127.298 90.2024 127.298 90.0096C127.298 89.8167 127.143 89.6604 126.951 89.6604Z" fill="white"/>
<path d="M122.931 89.7188H118.998C118.806 89.7188 118.651 89.8751 118.651 90.0679C118.651 90.2608 118.806 90.4171 118.998 90.4171H122.931C123.123 90.4171 123.279 90.2608 123.279 90.0679C123.279 89.8751 123.123 89.7188 122.931 89.7188Z" fill="white"/>
<path d="M119.592 88.0842H118.959C118.768 88.0842 118.612 88.2406 118.612 88.4334C118.612 88.6263 118.768 88.7826 118.959 88.7826H119.592C119.784 88.7826 119.94 88.6263 119.94 88.4334C119.94 88.2406 119.784 88.0842 119.592 88.0842Z" fill="white"/>
<path d="M126.83 88.0842H126.197C126.006 88.0842 125.85 88.2406 125.85 88.4334C125.85 88.6263 126.006 88.7826 126.197 88.7826H126.83C127.022 88.7826 127.178 88.6263 127.178 88.4334C127.178 88.2406 127.022 88.0842 126.83 88.0842Z" fill="white"/>
<path d="M128.881 88.0842H128.248C128.056 88.0842 127.901 88.2406 127.901 88.4334C127.901 88.6263 128.056 88.7826 128.248 88.7826H128.881C129.073 88.7826 129.228 88.6263 129.228 88.4334C129.228 88.2406 129.073 88.0842 128.881 88.0842Z" fill="white"/>
<path d="M124.862 88.1426H120.928C120.736 88.1426 120.581 88.2989 120.581 88.4918C120.581 88.6846 120.736 88.8409 120.928 88.8409H124.862C125.053 88.8409 125.209 88.6846 125.209 88.4918C125.209 88.2989 125.053 88.1426 124.862 88.1426Z" fill="white"/>
<path d="M121.523 86.5081H120.89C120.698 86.5081 120.542 86.6644 120.542 86.8572C120.542 87.0501 120.698 87.2064 120.89 87.2064H121.523C121.714 87.2064 121.87 87.0501 121.87 86.8572C121.87 86.6644 121.714 86.5081 121.523 86.5081Z" fill="white"/>
<path d="M128.76 86.5081H128.127C127.936 86.5081 127.78 86.6644 127.78 86.8572C127.78 87.0501 127.936 87.2064 128.127 87.2064H128.76C128.952 87.2064 129.108 87.0501 129.108 86.8572C129.108 86.6644 128.952 86.5081 128.76 86.5081Z" fill="white"/>
<path d="M130.811 86.5081H130.178C129.986 86.5081 129.831 86.6644 129.831 86.8572C129.831 87.0501 129.986 87.2064 130.178 87.2064H130.811C131.003 87.2064 131.158 87.0501 131.158 86.8572C131.158 86.6644 131.003 86.5081 130.811 86.5081Z" fill="white"/>
<path d="M126.792 86.5664H122.858C122.666 86.5664 122.511 86.7227 122.511 86.9156C122.511 87.1084 122.666 87.2648 122.858 87.2648H126.792C126.983 87.2648 127.139 87.1084 127.139 86.9156C127.139 86.7227 126.983 86.5664 126.792 86.5664Z" fill="white"/>
<path d="M112.368 109.709L109.397 104.989L118.722 97.5174L122.571 93.2315C123.071 92.6747 123.708 92.2596 124.417 92.0276C125.127 91.7956 125.885 91.7548 126.615 91.9094C127.345 92.064 128.023 92.4085 128.579 92.9085C129.135 93.4085 129.551 94.0466 129.785 94.7588C130.132 95.8142 130.058 96.9639 129.577 97.9651C129.097 98.9663 128.248 99.7407 127.21 100.125L121.124 102.379L112.368 109.709Z" fill="#FFB6B6"/>
<path d="M42.6599 75.4861V98.4263H58.6499V75.4861C58.6502 75.3211 58.5978 75.1604 58.5004 75.0275C58.4031 74.8947 58.2659 74.7967 58.1091 74.748C58.0352 74.7234 57.9577 74.7114 57.8799 74.7122H43.4321C43.3309 74.712 43.2305 74.7319 43.1369 74.7707C43.0433 74.8095 42.9582 74.8664 42.8864 74.9383C42.8147 75.0102 42.7578 75.0955 42.7189 75.1895C42.6801 75.2835 42.66 75.3843 42.6599 75.4861V75.4861ZM48.9001 83.3684C48.9043 82.9162 49.086 82.4839 49.4056 82.1656C49.7253 81.8473 50.1571 81.6687 50.607 81.6687C51.057 81.6687 51.4888 81.8473 51.8085 82.1656C52.1281 82.4839 52.3098 82.9162 52.314 83.3684V86.0302C52.3117 86.4837 52.1308 86.9178 51.811 87.2376C51.4911 87.5575 51.0582 87.737 50.607 87.737C50.1558 87.737 49.723 87.5575 49.4031 87.2376C49.0833 86.9178 48.9024 86.4837 48.9001 86.0302V83.3684Z" fill="#2F2E41"/>
<path d="M42.611 97.6926V99.9048C42.6113 100.019 42.6566 100.129 42.737 100.21C42.8174 100.292 42.9265 100.338 43.0405 100.339H58.2693C58.3835 100.338 58.4927 100.292 58.5732 100.211C58.6537 100.13 58.6989 100.019 58.6988 99.9048V97.6926H42.611Z" fill="#3F3D56"/>
<path d="M17.5055 40.9239V82.8094C17.5059 83.3431 17.7171 83.8549 18.0926 84.2324C18.4681 84.6098 18.9773 84.822 19.5084 84.8224H81.2651C81.7961 84.822 82.3053 84.6098 82.6809 84.2324C83.0564 83.8549 83.2676 83.3431 83.268 82.8094V40.9239C83.2667 40.3906 83.0552 39.8796 82.6798 39.5027C82.3044 39.1258 81.7957 38.9138 81.2651 38.9131H19.5084C18.9778 38.9138 18.4691 39.1258 18.0937 39.5027C17.7183 39.8796 17.5068 40.3906 17.5055 40.9239Z" fill="#3F3D56"/>
<path d="M18.9542 41.4451V82.2927C18.9547 82.5779 19.0676 82.8512 19.2683 83.0529C19.4689 83.2545 19.7409 83.3681 20.0247 83.3685H80.7509C81.0347 83.3681 81.3067 83.2545 81.5073 83.0529C81.708 82.8512 81.8209 82.5779 81.8214 82.2927V41.4451C81.8214 41.1595 81.7086 40.8857 81.508 40.6835C81.3073 40.4814 81.035 40.3676 80.7509 40.3669H20.0247C19.7406 40.3676 19.4683 40.4814 19.2676 40.6835C19.067 40.8857 18.9543 41.1595 18.9542 41.4451Z" fill="white"/>
<path d="M30.2241 100.189C30.2859 100.267 30.3644 100.329 30.4539 100.372C30.5433 100.415 30.6412 100.438 30.7404 100.437H66.8686C66.9674 100.437 67.0649 100.415 67.1541 100.372C67.2432 100.329 67.3218 100.267 67.384 100.19C67.4463 100.113 67.4906 100.023 67.5139 99.926C67.5371 99.8295 67.5387 99.729 67.5184 99.6318L66.9576 96.9544C66.9343 96.8452 66.8843 96.7436 66.812 96.6589C66.7397 96.5741 66.6474 96.5088 66.5436 96.469C66.4685 96.4394 66.3885 96.4242 66.3077 96.4243H31.299C31.2182 96.4242 31.1382 96.4394 31.0631 96.469C30.9593 96.5088 30.867 96.5741 30.7947 96.6588C30.7224 96.7436 30.6724 96.8452 30.6491 96.9544L30.0883 99.6318C30.0684 99.729 30.0702 99.8293 30.0937 99.9257C30.1171 100.022 30.1617 100.112 30.2241 100.189Z" fill="#2F2E41"/>
<path d="M78.7802 45.9938H21.9589C21.8999 45.9925 21.8437 45.9679 21.8023 45.9255C21.761 45.8831 21.7379 45.826 21.7379 45.7667C21.7379 45.7073 21.761 45.6503 21.8023 45.6078C21.8437 45.5654 21.8999 45.5409 21.9589 45.5396H78.7802C78.8393 45.5409 78.8955 45.5654 78.9368 45.6078C78.9781 45.6503 79.0012 45.7073 79.0012 45.7667C79.0012 45.826 78.9781 45.8831 78.9368 45.9255C78.8955 45.9679 78.8393 45.9925 78.7802 45.9938V45.9938Z" fill="#3F3D56"/>
<path d="M25.8268 44.3799C26.5582 44.3799 27.1511 43.7708 27.1511 43.0193C27.1511 42.2679 26.5582 41.6587 25.8268 41.6587C25.0954 41.6587 24.5026 42.2679 24.5026 43.0193C24.5026 43.7708 25.0954 44.3799 25.8268 44.3799Z" fill="#3F3D56"/>
<path d="M30.4015 44.3799C31.1329 44.3799 31.7258 43.7708 31.7258 43.0193C31.7258 42.2679 31.1329 41.6587 30.4015 41.6587C29.6702 41.6587 29.0773 42.2679 29.0773 43.0193C29.0773 43.7708 29.6702 44.3799 30.4015 44.3799Z" fill="#3F3D56"/>
<path d="M34.9761 44.3799C35.7075 44.3799 36.3003 43.7708 36.3003 43.0193C36.3003 42.2679 35.7075 41.6587 34.9761 41.6587C34.2447 41.6587 33.6519 42.2679 33.6519 43.0193C33.6519 43.7708 34.2447 44.3799 34.9761 44.3799Z" fill="#3F3D56"/>
<path d="M76.0256 41.9954H72.7764C72.7122 41.9969 72.6511 42.0236 72.6062 42.0698C72.5613 42.1159 72.5361 42.1779 72.5361 42.2425C72.5361 42.3071 72.5613 42.3691 72.6062 42.4153C72.6511 42.4615 72.7122 42.4882 72.7764 42.4897H76.0256C76.0902 42.4888 76.1519 42.4623 76.1972 42.4161C76.2426 42.3698 76.268 42.3075 76.268 42.2425C76.268 42.1776 76.2426 42.1152 76.1972 42.069C76.1519 42.0227 76.0902 41.9963 76.0256 41.9954Z" fill="#3F3D56"/>
<path d="M76.0255 42.9236H72.7763C72.712 42.925 72.6509 42.9517 72.6059 42.9979C72.5609 43.0441 72.5358 43.1061 72.5358 43.1707C72.5358 43.2354 72.5609 43.2974 72.6059 43.3436C72.6509 43.3898 72.712 43.4165 72.7763 43.4179H76.0255C76.0902 43.4171 76.152 43.3907 76.1975 43.3445C76.243 43.2982 76.2685 43.2358 76.2685 43.1707C76.2685 43.1057 76.243 43.0433 76.1975 42.997C76.152 42.9508 76.0902 42.9244 76.0255 42.9236V42.9236Z" fill="#3F3D56"/>
<path d="M76.0256 43.8518H72.7764C72.7122 43.8533 72.6511 43.88 72.6062 43.9262C72.5613 43.9724 72.5361 44.0344 72.5361 44.099C72.5361 44.1635 72.5613 44.2255 72.6062 44.2717C72.6511 44.3179 72.7122 44.3446 72.7764 44.3461H76.0256C76.0902 44.3452 76.1519 44.3188 76.1972 44.2725C76.2426 44.2263 76.268 44.1639 76.268 44.099C76.268 44.034 76.2426 43.9717 76.1972 43.9254C76.1519 43.8792 76.0902 43.8527 76.0256 43.8518V43.8518Z" fill="#3F3D56"/>
<path d="M154.357 98.6634C154.455 98.9503 154.641 99.1987 154.889 99.3727C155.136 99.5468 155.431 99.6376 155.733 99.6322L161.629 99.4797C161.933 99.4737 162.227 99.369 162.467 99.1813C162.707 98.9935 162.88 98.7328 162.96 98.438L163.794 89.4715C164.09 89.6062 164.413 89.6728 164.737 89.6662C165.02 89.6591 165.298 89.5962 165.556 89.4811C165.814 89.3659 166.047 89.2008 166.241 88.9952C166.436 88.7895 166.588 88.5474 166.69 88.2825C166.791 88.0177 166.84 87.7354 166.833 87.4517C166.826 87.168 166.763 86.8885 166.649 86.6291C166.534 86.3697 166.37 86.1356 166.165 85.94C165.961 85.7444 165.72 85.5913 165.456 85.4893C165.193 85.3873 164.912 85.3385 164.629 85.3456C164.5 85.3452 164.37 85.3587 164.243 85.386C164.105 85.2358 163.937 85.1164 163.75 85.0354C163.564 84.9543 163.362 84.9135 163.158 84.9156L154.09 85.151C154.014 85.1538 153.939 85.1631 153.866 85.1789C153.667 85.2162 153.478 85.2958 153.313 85.4125C153.147 85.5292 153.008 85.6801 152.905 85.8553C152.803 86.0305 152.738 86.2257 152.717 86.4279C152.696 86.6301 152.717 86.8345 152.781 87.0275L154.357 98.6634ZM163.965 88.8627L164.559 86.7259C164.627 86.4791 164.628 86.2188 164.564 85.9711C164.592 85.9711 164.618 85.9573 164.647 85.9573C165.054 85.9488 165.447 86.1029 165.742 86.3858C166.036 86.6688 166.206 87.0574 166.216 87.4665C166.225 87.8756 166.073 88.2718 165.792 88.5682C165.512 88.8647 165.126 89.0371 164.719 89.0478C164.455 89.0561 164.195 88.9921 163.965 88.8627Z" fill="#2F2E41"/>
<path d="M153.866 85.1789C154.059 86.2893 156.231 87.0698 158.843 86.9342C161.245 86.8229 163.209 85.9753 163.569 84.9706C163.436 84.931 163.297 84.9125 163.158 84.9156L154.09 85.151C154.014 85.1538 153.939 85.1631 153.866 85.1789V85.1789Z" fill="#3F3D56"/>
<path d="M159.322 93.7364C159.334 93.7334 159.345 93.7284 159.356 93.7216L160.636 92.8793C160.651 92.8691 160.664 92.8553 160.673 92.8389C160.682 92.8226 160.686 92.8043 160.686 92.7858C160.686 92.7672 160.682 92.7489 160.673 92.7326C160.664 92.7163 160.651 92.7024 160.636 92.6922L159.305 91.8162C159.293 91.808 159.279 91.8024 159.265 91.7996C159.25 91.7968 159.236 91.7969 159.221 91.7999C159.207 91.8029 159.193 91.8087 159.181 91.8169C159.169 91.8252 159.159 91.8358 159.151 91.8481C159.143 91.8604 159.137 91.8742 159.134 91.8887C159.132 91.9031 159.132 91.918 159.135 91.9324C159.138 91.9468 159.144 91.9605 159.152 91.9726C159.16 91.9847 159.171 91.9951 159.183 92.0031L160.372 92.7856L159.234 93.5344C159.212 93.5489 159.195 93.5708 159.188 93.5962C159.18 93.6215 159.182 93.6487 159.193 93.673C159.203 93.6972 159.222 93.7169 159.246 93.7285C159.269 93.7401 159.296 93.7429 159.322 93.7364H159.322Z" fill="#5D93D2"/>
<path d="M157.3 93.8301C157.321 93.8247 157.341 93.8129 157.355 93.7963C157.37 93.7797 157.38 93.759 157.383 93.7369C157.386 93.7148 157.382 93.6924 157.372 93.6724C157.363 93.6524 157.347 93.6358 157.328 93.6247L156.148 92.9446L157.288 92.0931C157.3 92.0843 157.31 92.0733 157.317 92.0607C157.325 92.0481 157.33 92.0342 157.332 92.0197C157.334 92.0051 157.333 91.9903 157.33 91.9761C157.326 91.9619 157.32 91.9485 157.311 91.9367C157.303 91.9249 157.292 91.915 157.279 91.9075C157.267 91.8999 157.253 91.8949 157.238 91.8928C157.224 91.8907 157.209 91.8914 157.195 91.895C157.181 91.8986 157.167 91.9049 157.156 91.9137L155.879 92.8671C155.864 92.8782 155.852 92.8928 155.844 92.9096C155.836 92.9264 155.833 92.9449 155.834 92.9634C155.835 92.982 155.841 92.9999 155.85 93.0157C155.86 93.0315 155.874 93.0446 155.89 93.0538L157.217 93.8187C157.242 93.8332 157.272 93.8373 157.3 93.8301V93.8301Z" fill="#5D93D2"/>
<path d="M159.195 94.4744C159.205 94.4717 159.216 94.4673 159.225 94.4615C159.238 94.4538 159.248 94.4438 159.257 94.4319C159.266 94.4201 159.272 94.4066 159.275 94.3924C159.279 94.3781 159.28 94.3633 159.277 94.3488C159.275 94.3342 159.27 94.3203 159.262 94.3077L157.447 91.3086C157.432 91.2834 157.407 91.2652 157.379 91.2583C157.35 91.2513 157.32 91.2561 157.294 91.2715C157.269 91.2869 157.251 91.3117 157.244 91.3405C157.237 91.3693 157.242 91.3997 157.257 91.4251L159.072 94.4242C159.085 94.4446 159.103 94.4605 159.125 94.4695C159.147 94.4785 159.172 94.4803 159.195 94.4744Z" fill="#5D93D2"/>
<path d="M57.1587 58.3406H47.3242C46.923 58.3406 46.5978 58.6675 46.5978 59.0707V60.0364C46.5978 60.4396 46.923 60.7665 47.3242 60.7665H57.1587C57.5599 60.7665 57.8851 60.4396 57.8851 60.0364V59.0707C57.8851 58.6675 57.5599 58.3406 57.1587 58.3406Z" fill="#5D93D2"/>
<path d="M62.8912 63.1924H41.5918C41.1906 63.1924 40.8654 63.5193 40.8654 63.9225V64.8882C40.8654 65.2914 41.1906 65.6183 41.5918 65.6183H62.8912C63.2924 65.6183 63.6177 65.2914 63.6177 64.8882V63.9225C63.6177 63.5193 63.2924 63.1924 62.8912 63.1924Z" fill="#E6E6E6"/>
<path d="M62.8912 68.0442H41.5918C41.1906 68.0442 40.8654 68.3711 40.8654 68.7743V69.74C40.8654 70.1432 41.1906 70.4701 41.5918 70.4701H62.8912C63.2924 70.4701 63.6177 70.1432 63.6177 69.74V68.7743C63.6177 68.3711 63.2924 68.0442 62.8912 68.0442Z" fill="#E6E6E6"/>
<path d="M64.6968 84.2911L64.745 84.4442L64.7476 84.4493L66.1997 88.8866L67.8702 94L71.0132 103.609L71.0436 105.102V105.107L71.2772 117.115L70.6298 118.743L71.3584 121.412C71.3584 121.412 71.0233 117.378 69.2259 119.694C68.2079 121.011 67.0172 122.358 66.0398 123.621C67.464 124.201 68.9111 124.725 70.381 125.193C70.6984 125.295 71.0182 125.392 71.3381 125.489C71.4067 125.51 71.4752 125.53 71.5438 125.55C76.4164 126.999 81.4537 127.813 86.5324 127.972C86.7965 127.98 87.0554 127.985 87.3068 127.99C87.3956 127.992 87.4819 127.995 87.5683 127.995C87.8526 127.997 88.1344 128 88.4187 128C88.9925 128 89.5637 127.991 90.1324 127.974C94.3414 127.855 98.526 127.286 102.615 126.278C102.587 124.581 102.511 122.598 102.402 120.48C102.351 119.442 101.211 118.317 101.143 117.23C101.095 116.413 102.118 115.645 102.064 114.816C101.719 109.71 101.288 111.67 100.968 108.054C100.935 107.7 100.904 107.36 100.876 107.036C100.671 104.714 100.529 103.262 100.529 103.262L101.894 94.6099L104.04 81.0251L103.875 80.752L103.689 80.6602L92.3741 75.0313L91.7597 73.4493C91.5807 72.9936 91.2701 72.602 90.8679 72.3251C90.4657 72.0482 89.9903 71.8985 89.5028 71.8954L82.049 71.8648C81.6622 71.863 81.2806 71.954 80.9357 72.1302C80.5909 72.3063 80.2928 72.5626 80.0663 72.8778L78.048 75.6871L64.6968 84.2911Z" fill="#3F3D56"/>
<path d="M72.7319 101.471L71.0436 105.102L69.8911 107.582L67.9083 118.016L66.9156 119.075L66.0652 115.326L57.1638 117.312C56.8718 115.682 57.0857 117.368 56.9054 115.579C56.9562 115.528 57.0095 115.477 57.0628 115.426C57.205 115.293 57.3243 115.168 57.3218 115.048C57.2202 108.878 57.5248 98.3785 60.0687 92.0173C60.4671 90.9787 60.9924 89.9939 61.6325 89.0855C61.6833 89.0166 61.7315 88.9477 61.7798 88.8789C62.9527 87.228 63.694 85.6026 64.745 84.4467V84.4442C64.7516 84.4389 64.7575 84.4329 64.7628 84.4263C64.7666 84.4244 64.77 84.4218 64.7729 84.4186L71.9931 80.5708L72.3028 89.3177L72.5237 95.6049L72.7319 101.471Z" fill="#3F3D56"/>
<path d="M98.7665 102.503L100.875 107.038L101.611 108.617L103.594 119.05L104.583 120.106L105.435 116.358L105.836 116.276L113.059 114.772L115.165 121.493C115.639 120.698 115.826 119.763 115.694 118.846C115.562 117.928 115.119 117.085 114.439 116.459C114.295 116.328 114.176 116.201 114.179 116.08C114.299 108.823 113.857 95.5727 109.869 90.119C108.602 88.3883 107.842 86.6644 106.736 85.4601C106.733 85.4567 106.733 85.4532 106.729 85.4532L104.039 81.0249L103.874 80.753L103.689 80.6602L98.7665 102.503Z" fill="#3F3D56"/>
<path d="M85.9912 69.7327C91.4679 69.7327 95.9075 65.2705 95.9075 59.7662C95.9075 54.2618 91.4679 49.7996 85.9912 49.7996C80.5146 49.7996 76.075 54.2618 76.075 59.7662C76.075 65.2705 80.5146 69.7327 85.9912 69.7327Z" fill="#FFB6B6"/>
<path d="M99.3942 52.8045C99.3174 52.722 99.2247 52.6559 99.1219 52.6101C99.019 52.5644 98.908 52.54 98.7956 52.5383L98.9447 52.1223C98.9933 51.9912 99.0065 51.8496 98.9827 51.7117C98.959 51.5739 98.8992 51.4449 98.8096 51.3379C98.7199 51.231 98.6035 51.1499 98.4724 51.103C98.3413 51.0561 98.2002 51.045 98.0634 51.071L97.5204 51.1761L97.5716 50.8116C97.5912 50.6758 97.5753 50.5372 97.5255 50.4094C97.4757 50.2817 97.3936 50.1692 97.2874 50.0829C97.1812 49.9967 97.0545 49.9398 96.9198 49.9177C96.785 49.8957 96.6469 49.9092 96.5189 49.9571C96.4025 50.0032 96.2774 50.0224 96.1526 50.0135C96.0278 50.0046 95.9066 49.9678 95.7979 49.9057C95.6887 49.8455 95.5939 49.762 95.5201 49.6612C95.4463 49.5604 95.3953 49.4446 95.3706 49.3219L95.1814 48.4048L95.1614 48.3556C94.24 46.8122 92.4686 45.6894 90.301 45.2778C88.3715 44.9087 86.3931 45.0966 84.4858 45.2733C83.7292 45.3449 82.8746 45.4254 82.1625 45.8638C81.5571 46.2396 81.0453 46.9912 81.1499 47.7494C79.2694 47.1701 77.2531 48.3265 76.2539 49.7849C75.0699 51.5206 74.8763 53.6947 74.8451 55.3947C74.7606 59.4163 75.5862 62.7066 77.2931 65.176C77.4178 65.3549 77.4489 65.7285 77.6959 65.8537L77.6448 65.771C77.9207 65.9096 78.2011 66.1333 78.0965 66.3726C77.7961 67.0616 79.7923 68.5848 81.1988 69.0881C83.7648 70.0074 87.1764 69.9291 89.5755 69.598L89.66 69.0277C90.5258 68.9091 91.1355 68.6832 91.3069 68.3298C91.6096 68.0703 91.8677 67.8377 92.0925 67.623L92.0947 67.6208C92.0992 67.6163 92.108 67.6096 92.1125 67.6051C93.1963 66.5605 93.4478 65.9656 93.5613 65.0597C93.6703 64.1717 93.4767 63.2703 93.2787 62.4583C97.4492 63.107 91.6363 57.9938 95.5219 57.0051C95.5665 56.9913 95.6118 56.9801 95.6577 56.9716C95.7712 56.9447 95.8847 56.9179 95.9937 56.8866C96.5194 56.7432 97.0227 56.5271 97.4892 56.2446C98.5753 55.5803 98.9336 54.699 99.4944 53.7059C99.5753 53.5645 99.6092 53.4008 99.5912 53.2387C99.5732 53.0766 99.5042 52.9245 99.3942 52.8045V52.8045Z" fill="#2F2E41"/>
<path d="M121.064 103.212C121.061 103.603 121.057 104.151 121.039 104.829C121.037 104.923 121.035 105.019 121.032 105.118C121.003 106.364 120.975 107.408 120.928 108.569C120.926 108.65 120.923 108.728 120.919 108.808C120.857 110.428 120.759 112.313 120.59 115.299C120.276 120.815 119.728 116.058 119.179 117.993C119.152 118.089 119.123 118.203 119.096 118.337C119.013 118.824 118.873 119.299 118.678 119.753C118.386 119.927 118.086 120.095 117.79 120.263C116.946 120.735 116.09 121.189 115.226 121.621C114.741 121.862 114.254 122.099 113.764 122.327C113.686 122.363 113.611 122.399 113.535 122.432C111.028 123.598 108.444 124.589 105.801 125.398C105.285 125.555 104.771 125.707 104.25 125.848C103.707 126 103.164 126.143 102.614 126.277C98.5252 127.286 94.3409 127.856 90.1319 127.975C89.5644 127.993 88.9924 128 88.4183 128C88.1334 128 87.853 127.998 87.5681 127.995C87.4813 127.995 87.3945 127.993 87.3077 127.991C87.0563 127.984 86.7959 127.98 86.5333 127.973C81.4545 127.814 76.4172 127 71.5448 125.551L71.3378 125.49C71.0173 125.392 70.6991 125.296 70.3809 125.193C68.912 124.725 67.4647 124.202 66.039 123.622C64.9507 123.182 63.8751 122.709 62.8121 122.204C62.8023 122.202 62.7933 122.197 62.7853 122.191C62.5628 122.088 62.338 121.981 62.1155 121.871C62.0866 121.855 62.0554 121.84 62.0242 121.824C61.1941 121.417 60.3729 120.991 59.5607 120.545C58.8774 118.968 57.916 118.666 57.3196 117.279C57.146 116.867 57.0206 116.436 56.9457 115.995C56.9457 115.991 56.9435 115.986 56.9435 115.979C57.0058 116.812 56.6787 114.503 56.9413 115.97C56.9391 115.944 56.9368 115.915 56.9346 115.881C56.9279 115.8 56.919 115.702 56.9057 115.579C56.1424 108.088 56.1913 99.5214 55.8597 92.4622C55.8375 92.0059 55.8145 91.569 55.7907 91.1515C55.784 91.0128 55.7751 90.8764 55.7662 90.7422C55.7818 90.7019 55.7996 90.6594 55.8196 90.6191C55.8239 90.6075 55.8291 90.5963 55.8352 90.5856C55.8418 90.5717 55.8492 90.5582 55.8575 90.5453C55.8619 90.5386 55.8686 90.5297 55.8731 90.5229C55.8763 90.5153 55.88 90.5078 55.8842 90.5006C55.9042 90.4693 55.9265 90.4357 55.9509 90.4044C55.9621 90.391 55.971 90.3798 55.9821 90.3686C55.9898 90.3572 55.9987 90.3467 56.0088 90.3373C56.0156 90.3265 56.0239 90.3168 56.0333 90.3082C56.0422 90.2993 56.0511 90.2881 56.0622 90.2769C56.067 90.2699 56.073 90.2638 56.08 90.259C56.0976 90.2387 56.117 90.22 56.1379 90.2031C56.2173 90.1297 56.3021 90.0624 56.3916 90.0018C56.4227 89.9817 56.4561 89.9615 56.4873 89.9392C56.7116 89.8043 56.9477 89.6905 57.1928 89.5992C57.2773 89.5679 57.3619 89.5388 57.4531 89.5075C57.4865 89.4985 57.5177 89.4873 57.5511 89.4762C57.6 89.4605 57.649 89.4448 57.7002 89.4337C57.9539 89.3576 58.2276 89.2927 58.5236 89.2323C58.5592 89.2256 58.597 89.2189 58.6349 89.21C58.6883 89.1988 58.7439 89.1898 58.7995 89.1809C58.8752 89.1675 58.9531 89.1541 59.031 89.1406C59.692 89.0355 60.4419 88.9572 61.2698 88.9058C61.3477 88.9013 61.4256 88.8968 61.5035 88.8924C61.5947 88.8879 61.686 88.8834 61.7794 88.8789C61.8573 88.8745 61.9374 88.8722 62.0176 88.87C62.0955 88.8655 62.1756 88.8633 62.2579 88.861C62.4827 88.8543 62.7141 88.8476 62.95 88.8431C63.6221 88.8297 64.3298 88.8342 65.0731 88.8499C65.4181 88.8588 65.7697 88.8678 66.1302 88.8834C66.1547 88.8834 66.177 88.8856 66.1992 88.8856C66.513 88.8968 66.829 88.9103 67.1539 88.9281C67.3809 88.9393 67.6102 88.9505 67.8394 88.9639C68.0552 88.9774 68.2733 88.9908 68.4937 89.0064C68.665 89.0154 68.8364 89.0288 69.01 89.04C69.1568 89.0512 69.3037 89.0624 69.4506 89.0713L69.6509 89.0847C69.7599 89.0937 69.869 89.1004 69.9803 89.1116C70.2251 89.1317 70.4699 89.1518 70.7191 89.172C70.9662 89.1943 71.2176 89.2167 71.4691 89.2391C71.7206 89.2614 71.9743 89.286 72.228 89.3106C72.2547 89.3129 72.2792 89.3151 72.3037 89.3173C72.5351 89.342 72.7666 89.3643 73.0002 89.3889C73.0536 89.3934 73.1093 89.3979 73.1627 89.4046C73.3855 89.4271 73.6126 89.4534 73.8374 89.4774C73.9064 89.4849 73.9751 89.4922 74.0443 89.4998C74.2204 89.519 74.394 89.5357 74.5714 89.5567C74.8051 89.5835 75.0432 89.6081 75.2746 89.6394C75.4549 89.6596 75.6352 89.6797 75.8154 89.7021C76.0981 89.7356 76.3851 89.7714 76.6722 89.8094C76.7813 89.8228 76.8903 89.8363 76.9994 89.8519C77.8183 89.9548 78.6462 90.0689 79.4874 90.1874C80.7626 90.3686 82.0578 90.5655 83.362 90.7779C84.6683 90.9904 85.9821 91.2149 87.3033 91.4512C87.6371 91.5116 87.9709 91.572 88.307 91.6346C88.4583 91.6637 88.6096 91.6928 88.7609 91.7218C89.0191 91.7688 89.2772 91.818 89.5354 91.8672C89.7936 91.9164 90.0517 91.9656 90.3099 92.0171C90.617 92.0775 90.9263 92.1379 91.2334 92.1983C93.2564 92.6009 95.2682 93.0303 97.2311 93.4799C97.5538 93.5537 97.8765 93.6298 98.1969 93.7036C98.8379 93.8535 99.4729 94.0056 100.102 94.1599C100.276 94.2002 100.447 94.2427 100.618 94.2852C101.046 94.3925 101.473 94.4999 101.893 94.6095L101.967 94.6296C102.276 94.7057 102.579 94.784 102.882 94.8645C103.596 95.0524 104.298 95.2425 104.989 95.4349C105.447 95.5624 105.901 95.6913 106.349 95.8218C107.019 96.0164 107.675 96.2132 108.314 96.4123C108.472 96.4615 108.63 96.5107 108.786 96.5577C109.253 96.7031 109.714 96.8507 110.161 96.9983C110.517 97.1147 110.864 97.2332 111.207 97.3518C111.55 97.4703 111.886 97.5888 112.215 97.7074C112.427 97.7834 112.636 97.864 112.845 97.94C113.145 98.0519 113.441 98.1637 113.731 98.2755C113.82 98.3091 113.906 98.3449 113.993 98.3784C114.049 98.403 114.102 98.4232 114.156 98.4455C114.26 98.488 114.367 98.5283 114.47 98.5708C114.574 98.611 114.676 98.6535 114.779 98.6983C114.879 98.7385 114.981 98.781 115.079 98.8235C115.179 98.8638 115.277 98.9063 115.375 98.951C115.458 98.9846 115.538 99.0204 115.616 99.0562C115.774 99.1255 115.932 99.1948 116.085 99.2664C116.161 99.3022 116.237 99.3358 116.312 99.3715L116.486 99.4521C116.51 99.4655 116.535 99.4767 116.559 99.4879C116.615 99.5147 116.673 99.5438 116.728 99.5706C116.857 99.631 116.984 99.6959 117.109 99.7563C117.276 99.8413 117.438 99.9263 117.594 100.009C117.752 100.094 117.906 100.179 118.053 100.262C118.077 100.275 118.099 100.289 118.124 100.302C118.157 100.32 118.19 100.34 118.224 100.358C118.337 100.423 118.446 100.49 118.555 100.555C118.769 100.687 118.972 100.816 119.161 100.946C119.203 100.975 119.243 101.004 119.285 101.031C119.426 101.132 119.559 101.23 119.684 101.331C119.684 101.333 119.684 101.333 119.686 101.333C119.728 101.364 119.768 101.398 119.808 101.429C119.842 101.461 119.877 101.488 119.911 101.519C120.026 101.619 120.133 101.716 120.231 101.814C120.264 101.844 120.295 101.877 120.325 101.91C120.338 101.921 120.35 101.933 120.36 101.946C120.405 101.991 120.445 102.035 120.483 102.08C120.489 102.086 120.494 102.093 120.498 102.1C120.552 102.163 120.601 102.226 120.647 102.288C120.67 102.32 120.694 102.351 120.714 102.382C120.741 102.42 120.768 102.46 120.79 102.499C120.81 102.53 120.828 102.563 120.845 102.595C120.893 102.675 120.933 102.76 120.966 102.847C120.991 102.907 121.011 102.968 121.026 103.031C121.043 103.09 121.055 103.151 121.064 103.212V103.212Z" fill="#2F2E41"/>
<path opacity="0.2" d="M121.064 103.212C121.061 103.603 121.057 104.151 121.039 104.829C121.037 104.923 121.032 105.019 121.03 105.118C121.008 106.068 120.974 107.243 120.928 108.569C120.926 108.65 120.923 108.728 120.919 108.808C120.857 110.428 120.759 112.313 120.589 115.299C120.276 120.815 119.728 116.058 119.179 117.993C117.652 117.049 115.978 116.06 114.189 115.044C113.866 114.861 113.541 114.677 113.212 114.492C109.634 112.486 105.637 110.383 101.464 108.301C101.299 108.218 101.132 108.135 100.968 108.055C91.4092 103.306 80.9762 98.6871 72.5239 95.6048C70.8926 95.0099 69.3348 94.473 67.8704 94.0011C64.7859 93.0102 62.1198 92.3168 60.068 92.0171C57.9315 91.7039 56.456 91.8158 55.8596 92.4622C55.8374 92.0059 55.8143 91.569 55.7906 91.1515C55.7817 91.0128 55.7728 90.8763 55.7639 90.7421C55.7776 90.7053 55.7955 90.6702 55.8128 90.6347C55.8152 90.6296 55.817 90.6242 55.8196 90.6191C55.8238 90.6075 55.829 90.5963 55.8351 90.5856C55.8417 90.5717 55.8491 90.5582 55.8574 90.5453C55.8646 90.5294 55.8736 90.5144 55.8841 90.5006C55.9041 90.4692 55.9264 90.4357 55.9509 90.4044C55.9689 90.3809 55.9882 90.3585 56.0087 90.3373C56.0155 90.3265 56.0238 90.3167 56.0332 90.3082C56.0421 90.2992 56.051 90.2881 56.0621 90.2769C56.0669 90.2698 56.0729 90.2638 56.0799 90.259C56.0975 90.2387 56.1169 90.22 56.1378 90.2031C56.2172 90.1296 56.302 90.0623 56.3915 90.0018C56.4226 89.9816 56.456 89.9615 56.4872 89.9391C56.7115 89.8043 56.9476 89.6905 57.1927 89.5992C57.2772 89.5678 57.3618 89.5388 57.453 89.5074C57.4864 89.4985 57.5176 89.4873 57.551 89.4761C57.5999 89.4605 57.6489 89.4448 57.7001 89.4336C57.9538 89.3576 58.2275 89.2927 58.5235 89.2323C58.6125 89.2144 58.706 89.1965 58.7995 89.1809C58.8751 89.1675 58.953 89.154 59.0309 89.1406C59.6919 89.0355 60.4418 88.9572 61.2697 88.9058C61.3476 88.9013 61.4255 88.8968 61.5034 88.8923C61.5946 88.8879 61.6859 88.8834 61.7793 88.8789C61.8572 88.8744 61.9374 88.8722 62.0175 88.87C62.0954 88.8655 62.1755 88.8633 62.2578 88.861C62.4826 88.8543 62.714 88.8476 62.9499 88.8431C63.622 88.8319 64.3297 88.8364 65.073 88.8521C65.418 88.8588 65.7696 88.87 66.1301 88.8856C66.1524 88.8856 66.1769 88.8879 66.1991 88.8879C66.5129 88.8968 66.8312 88.9125 67.1538 88.9281C67.3808 88.9393 67.6101 88.9505 67.8393 88.9639C68.0551 88.9773 68.2732 88.9907 68.4936 89.0064C68.6649 89.0154 68.8363 89.0288 69.0099 89.04C69.1567 89.0511 69.3036 89.0623 69.4505 89.0713C69.6263 89.0847 69.8021 89.0981 69.9802 89.1115C70.225 89.1317 70.4698 89.1518 70.719 89.1719C70.9661 89.1943 71.2175 89.2167 71.469 89.239C71.7205 89.2614 71.9742 89.286 72.2279 89.3106C72.2546 89.3128 72.2791 89.3151 72.3036 89.3173C72.535 89.3419 72.7665 89.3643 73.0001 89.3889C74.2954 89.5209 75.6284 89.6752 76.9993 89.8519C77.8183 89.957 78.6476 90.0696 79.4874 90.1896C80.7625 90.3708 82.0578 90.5677 83.3619 90.7779C84.6683 90.9904 85.982 91.2148 87.3032 91.4512C87.637 91.5116 87.9708 91.572 88.3069 91.6346C88.7164 91.7106 89.1259 91.7882 89.5353 91.8672C89.7935 91.9164 90.0516 91.9656 90.3098 92.0171C90.6169 92.0775 90.9263 92.1379 91.2334 92.1983C93.2563 92.6009 95.2681 93.0303 97.231 93.4799C97.5537 93.5537 97.8764 93.6298 98.1968 93.7036C98.8378 93.8535 99.4728 94.0055 100.102 94.1599C100.275 94.2024 100.447 94.2449 100.618 94.2874C101.048 94.3947 101.473 94.5021 101.893 94.6095V94.6117C101.918 94.6162 101.942 94.6229 101.967 94.6296C102.274 94.7079 102.579 94.7862 102.881 94.8667C103.596 95.0546 104.298 95.244 104.989 95.4348C105.447 95.5646 105.901 95.6921 106.349 95.8218C107.019 96.0186 107.675 96.2155 108.314 96.4123C108.472 96.4615 108.63 96.5107 108.786 96.5577C109.253 96.7053 109.711 96.8522 110.161 96.9983C110.517 97.1146 110.864 97.2332 111.207 97.3517C111.55 97.4703 111.886 97.5888 112.215 97.7074C112.429 97.7834 112.638 97.8617 112.845 97.9378C113.148 98.0496 113.441 98.1614 113.731 98.2755C113.82 98.3091 113.906 98.3449 113.993 98.3784C114.156 98.441 114.314 98.5059 114.469 98.5708C114.574 98.611 114.676 98.6535 114.779 98.6983C114.879 98.7385 114.981 98.781 115.079 98.8235C115.179 98.8638 115.277 98.9063 115.375 98.951C115.458 98.9846 115.538 99.0204 115.616 99.0561C115.774 99.1255 115.932 99.1948 116.085 99.2664C116.161 99.3022 116.236 99.3357 116.312 99.3715L116.486 99.4521C116.51 99.4655 116.535 99.4767 116.559 99.4878C116.748 99.5773 116.931 99.6668 117.109 99.7562C117.276 99.8412 117.438 99.9262 117.594 100.009C117.779 100.107 117.955 100.204 118.124 100.302C118.157 100.32 118.19 100.34 118.224 100.358C118.337 100.423 118.446 100.49 118.555 100.555C118.769 100.687 118.972 100.816 119.161 100.946C119.348 101.076 119.521 101.203 119.684 101.331C119.684 101.333 119.684 101.333 119.686 101.333C119.764 101.396 119.839 101.458 119.911 101.519C120.026 101.619 120.133 101.716 120.231 101.814C120.264 101.844 120.295 101.877 120.325 101.91C120.338 101.921 120.35 101.933 120.36 101.946C120.407 101.997 120.454 102.049 120.498 102.1C120.552 102.163 120.601 102.226 120.647 102.288C120.67 102.32 120.694 102.351 120.714 102.382C120.741 102.42 120.768 102.46 120.79 102.498C120.81 102.53 120.828 102.563 120.845 102.595C120.893 102.675 120.933 102.76 120.966 102.847C120.99 102.907 121.01 102.968 121.026 103.031C121.043 103.09 121.055 103.151 121.064 103.212V103.212Z" fill="black"/>
</g>
<defs>
<clipPath id="clip0_147_113">
<rect width="175.104" height="128" fill="white"/>
</clipPath>
</defs>
</svg>
